<svg id="Degradado_negro_lindo_copia" data-name="Degradado negro lindo copia" xmlns="http://www.w3.org/2000/svg" xmlns:xlink="http://www.w3.org/1999/xlink" viewBox="0 0 479.69 554.53"><defs><style>.cls-1{font-size:83px;font-family:Century Gothic;font-weight:700;letter-spacing:20px;}.cls-1,.cls-4,.cls-5{fill:none;}.cls-2{clip-path:url(#clip-path);}.cls-3{fill:url(#Degradado_sin_nombre_70);}.cls-4,.cls-5{stroke-miterlimit:10;}.cls-4{stroke:url(#Degradado_sin_nombre_70-2);}.cls-5{stroke:#b688ff;}.cls-6{fill:url(#Degradado_sin_nombre_70-3);}.cls-7{fill:url(#Degradado_sin_nombre_62);}.cls-8{fill:url(#Degradado_sin_nombre_70-4);}.cls-9{fill:url(#Degradado_sin_nombre_70-5);}.cls-10{fill:url(#Degradado_sin_nombre_70-6);}.cls-11{fill:url(#Degradado_sin_nombre_70-7);}.cls-12{fill:url(#Degradado_sin_nombre_70-8);}.cls-13{fill:#f6f6f6;}.cls-14{fill:url(#Degradado_sin_nombre_70-9);}.cls-15{fill:url(#Degradado_sin_nombre_70-10);}.cls-16{fill:url(#Degradado_sin_nombre_70-11);}.cls-17{fill:url(#Degradado_sin_nombre_62-2);}.cls-18{fill:url(#Degradado_sin_nombre_62-3);}.cls-19{fill:url(#Degradado_sin_nombre_62-4);}.cls-20{fill:url(#Degradado_sin_nombre_70-12);}.cls-21{fill:url(#Degradado_sin_nombre_70-13);}.cls-22{fill:url(#Degradado_sin_nombre_70-14);}.cls-23{fill:url(#Degradado_sin_nombre_70-15);}.cls-24{fill:url(#Degradado_sin_nombre_70-16);}.cls-25{fill:url(#Degradado_sin_nombre_62-5);}.cls-26{fill:url(#Degradado_sin_nombre_70-17);}.cls-27{fill:url(#Degradado_sin_nombre_70-18);}.cls-28{fill:url(#Degradado_sin_nombre_70-19);}.cls-29{fill:url(#Degradado_sin_nombre_70-20);}.cls-30{fill:url(#Degradado_sin_nombre_70-21);}.cls-31{fill:url(#Degradado_sin_nombre_70-22);}.cls-32{fill:url(#Degradado_sin_nombre_70-23);}.cls-33{fill:url(#Degradado_sin_nombre_70-24);}.cls-34{fill:url(#Degradado_sin_nombre_70-25);}.cls-35{fill:url(#Degradado_sin_nombre_70-26);}.cls-36{fill:url(#Degradado_sin_nombre_70-27);}.cls-37{fill:url(#Degradado_sin_nombre_70-28);}.cls-38{fill:url(#Degradado_sin_nombre_70-29);}.cls-39{fill:url(#Degradado_sin_nombre_70-30);}.cls-40{fill:url(#Degradado_sin_nombre_70-31);}.cls-41{fill:url(#Degradado_sin_nombre_70-32);}.cls-42{fill:url(#Degradado_sin_nombre_70-33);}.cls-43{fill:url(#Degradado_sin_nombre_70-34);}.cls-44{fill:url(#Degradado_sin_nombre_70-35);}.cls-45{fill:url(#Degradado_sin_nombre_70-36);}.cls-46{fill:url(#Degradado_sin_nombre_70-37);}.cls-47{fill:url(#Degradado_sin_nombre_70-38);}.cls-48{fill:url(#Degradado_sin_nombre_70-39);}.cls-49{fill:url(#Degradado_sin_nombre_70-40);}.cls-50{fill:url(#Degradado_sin_nombre_70-41);}.cls-51{fill:url(#Degradado_sin_nombre_70-42);}.cls-52{fill:url(#Degradado_sin_nombre_70-43);}.cls-53{fill:url(#Degradado_sin_nombre_70-44);}.cls-54{fill:url(#Degradado_sin_nombre_62-6);}.cls-55{fill:url(#Degradado_sin_nombre_70-45);}.cls-56{fill:url(#Degradado_sin_nombre_70-46);}.cls-57{fill:url(#Degradado_sin_nombre_70-47);}.cls-58{fill:url(#Degradado_sin_nombre_70-48);}.cls-59{fill:url(#Degradado_sin_nombre_62-7);}</style><clipPath id="clip-path" transform="translate(-55.8 -165.52)"><text class="cls-1" transform="translate(182.32 680.77)">JAC</text></clipPath><linearGradient id="Degradado_sin_nombre_70" x1="171.73" y1="657.05" x2="427.73" y2="657.05" gradientUnits="userSpaceOnUse"><stop offset="0" stop-color="#007aff"/><stop offset="0.5" stop-color="#003d80"/><stop offset="1" stop-color="#002042"/></linearGradient><linearGradient id="Degradado_sin_nombre_70-2" x1="55.8" y1="384.98" x2="535.49" y2="384.98" xlink:href="#Degradado_sin_nombre_70"/><linearGradient id="Degradado_sin_nombre_70-3" x1="197.15" y1="557.48" x2="233.55" y2="557.48" xlink:href="#Degradado_sin_nombre_70"/><linearGradient id="Degradado_sin_nombre_62" x1="451.65" y1="450.88" x2="482.1" y2="450.88" gradientUnits="userSpaceOnUse"><stop offset="0" stop-color="#001020"/><stop offset="0.5" stop-color="#001f3f"/><stop offset="1" stop-color="#004080"/></linearGradient><linearGradient id="Degradado_sin_nombre_70-4" x1="358.85" y1="333.32" x2="372.01" y2="333.32" xlink:href="#Degradado_sin_nombre_70"/><linearGradient id="Degradado_sin_nombre_70-5" x1="328.52" y1="395.48" x2="343.35" y2="395.48" xlink:href="#Degradado_sin_nombre_70"/><linearGradient id="Degradado_sin_nombre_70-6" x1="311.51" y1="387.61" x2="325.18" y2="387.61" xlink:href="#Degradado_sin_nombre_70"/><linearGradient id="Degradado_sin_nombre_70-7" x1="99.1" y1="503.2" x2="160.15" y2="503.2" xlink:href="#Degradado_sin_nombre_70"/><linearGradient id="Degradado_sin_nombre_70-8" x1="134.87" y1="465.34" x2="199.98" y2="465.34" xlink:href="#Degradado_sin_nombre_70"/><linearGradient id="Degradado_sin_nombre_70-9" x1="148.65" y1="507.91" x2="186.22" y2="507.91" xlink:href="#Degradado_sin_nombre_70"/><linearGradient id="Degradado_sin_nombre_70-10" x1="312.21" y1="527.11" x2="378.65" y2="527.11" xlink:href="#Degradado_sin_nombre_70"/><linearGradient id="Degradado_sin_nombre_70-11" x1="344.81" y1="482.47" x2="382.51" y2="482.47" xlink:href="#Degradado_sin_nombre_70"/><linearGradient id="Degradado_sin_nombre_62-2" x1="248.98" y1="418.4" x2="271.05" y2="418.4" xlink:href="#Degradado_sin_nombre_62"/><linearGradient id="Degradado_sin_nombre_62-3" x1="271.05" y1="437.29" x2="328.4" y2="437.29" xlink:href="#Degradado_sin_nombre_62"/><linearGradient id="Degradado_sin_nombre_62-4" x1="261.98" y1="451.67" x2="330.65" y2="451.67" xlink:href="#Degradado_sin_nombre_62"/><linearGradient id="Degradado_sin_nombre_70-12" x1="331.85" y1="336.07" x2="353.51" y2="336.07" xlink:href="#Degradado_sin_nombre_70"/><linearGradient id="Degradado_sin_nombre_70-13" x1="346.51" y1="356.57" x2="367.85" y2="356.57" xlink:href="#Degradado_sin_nombre_70"/><linearGradient id="Degradado_sin_nombre_70-14" x1="322.85" y1="354.24" x2="342.68" y2="354.24" xlink:href="#Degradado_sin_nombre_70"/><linearGradient id="Degradado_sin_nombre_70-15" x1="314.85" y1="369.91" x2="328.52" y2="369.91" xlink:href="#Degradado_sin_nombre_70"/><linearGradient id="Degradado_sin_nombre_70-16" x1="331.85" y1="376.24" x2="350.85" y2="376.24" xlink:href="#Degradado_sin_nombre_70"/><linearGradient id="Degradado_sin_nombre_62-5" x1="412.32" y1="338.52" x2="492.32" y2="338.52" xlink:href="#Degradado_sin_nombre_62"/><linearGradient id="Degradado_sin_nombre_70-17" x1="82.15" y1="409.76" x2="114.91" y2="409.76" xlink:href="#Degradado_sin_nombre_70"/><linearGradient id="Degradado_sin_nombre_70-18" x1="113.39" y1="433.84" x2="152.65" y2="433.84" xlink:href="#Degradado_sin_nombre_70"/><linearGradient id="Degradado_sin_nombre_70-19" x1="73.48" y1="452.98" x2="123.98" y2="452.98" xlink:href="#Degradado_sin_nombre_70"/><linearGradient id="Degradado_sin_nombre_70-20" x1="178.15" y1="406.42" x2="209.84" y2="406.42" xlink:href="#Degradado_sin_nombre_70"/><linearGradient id="Degradado_sin_nombre_70-21" x1="179.32" y1="430.37" x2="213.15" y2="430.37" xlink:href="#Degradado_sin_nombre_70"/><linearGradient id="Degradado_sin_nombre_70-22" x1="185.15" y1="470.77" x2="231.84" y2="470.77" xlink:href="#Degradado_sin_nombre_70"/><linearGradient id="Degradado_sin_nombre_70-23" x1="75.85" y1="222.27" x2="90.18" y2="222.27" xlink:href="#Degradado_sin_nombre_70"/><linearGradient id="Degradado_sin_nombre_70-24" x1="138.82" y1="375.17" x2="148.65" y2="375.17" gradientTransform="translate(307.39 8.25) rotate(45)" xlink:href="#Degradado_sin_nombre_70"/><linearGradient id="Degradado_sin_nombre_70-25" x1="111.63" y1="224.5" x2="130.41" y2="224.5" xlink:href="#Degradado_sin_nombre_70"/><linearGradient id="Degradado_sin_nombre_70-26" x1="135.51" y1="221.49" x2="149.35" y2="221.49" xlink:href="#Degradado_sin_nombre_70"/><linearGradient id="Degradado_sin_nombre_70-27" x1="106.85" y1="247.4" x2="123.51" y2="247.4" xlink:href="#Degradado_sin_nombre_70"/><linearGradient id="Degradado_sin_nombre_70-28" x1="95.18" y1="211.29" x2="111.63" y2="211.29" xlink:href="#Degradado_sin_nombre_70"/><linearGradient id="Degradado_sin_nombre_70-29" x1="97.36" y1="195.07" x2="111.63" y2="195.07" xlink:href="#Degradado_sin_nombre_70"/><linearGradient id="Degradado_sin_nombre_70-30" x1="95.18" y1="229.54" x2="111.35" y2="229.54" xlink:href="#Degradado_sin_nombre_70"/><linearGradient id="Degradado_sin_nombre_70-31" x1="90.18" y1="273.44" x2="103.58" y2="273.44" xlink:href="#Degradado_sin_nombre_70"/><linearGradient id="Degradado_sin_nombre_70-32" x1="98.85" y1="262.07" x2="113.51" y2="262.07" xlink:href="#Degradado_sin_nombre_70"/><linearGradient id="Degradado_sin_nombre_70-33" x1="126.51" y1="240.45" x2="139.64" y2="240.45" xlink:href="#Degradado_sin_nombre_70"/><linearGradient id="Degradado_sin_nombre_70-34" x1="115.18" y1="263.74" x2="126.51" y2="263.74" xlink:href="#Degradado_sin_nombre_70"/><linearGradient id="Degradado_sin_nombre_70-35" x1="104.49" y1="277.22" x2="115.18" y2="277.22" xlink:href="#Degradado_sin_nombre_70"/><linearGradient id="Degradado_sin_nombre_70-36" x1="97.36" y1="289.14" x2="110.52" y2="289.14" xlink:href="#Degradado_sin_nombre_70"/><linearGradient id="Degradado_sin_nombre_70-37" x1="87.93" y1="246.68" x2="103.26" y2="246.68" xlink:href="#Degradado_sin_nombre_70"/><linearGradient id="Degradado_sin_nombre_70-38" x1="77.21" y1="237.76" x2="90.18" y2="237.76" xlink:href="#Degradado_sin_nombre_70"/><linearGradient id="Degradado_sin_nombre_70-39" x1="175.98" y1="505.42" x2="252.86" y2="505.42" xlink:href="#Degradado_sin_nombre_70"/><linearGradient id="Degradado_sin_nombre_70-40" x1="241.64" y1="575.69" x2="314.65" y2="575.69" xlink:href="#Degradado_sin_nombre_70"/><linearGradient id="Degradado_sin_nombre_70-41" x1="295.61" y1="522.67" x2="313.11" y2="522.67" xlink:href="#Degradado_sin_nombre_70"/><linearGradient id="Degradado_sin_nombre_70-42" x1="238.1" y1="520.74" x2="289.43" y2="520.74" xlink:href="#Degradado_sin_nombre_70"/><linearGradient id="Degradado_sin_nombre_70-43" x1="215.35" y1="364.67" x2="284.65" y2="364.67" xlink:href="#Degradado_sin_nombre_70"/><linearGradient id="Degradado_sin_nombre_70-44" x1="234.33" y1="344.23" x2="254.15" y2="344.23" xlink:href="#Degradado_sin_nombre_70"/><linearGradient id="Degradado_sin_nombre_62-6" x1="70.98" y1="375.11" x2="72.68" y2="375.11" xlink:href="#Degradado_sin_nombre_62"/><linearGradient id="Degradado_sin_nombre_70-45" x1="68.57" y1="315.11" x2="230.43" y2="315.11" xlink:href="#Degradado_sin_nombre_70"/><linearGradient id="Degradado_sin_nombre_70-46" x1="235.32" y1="266.25" x2="291.32" y2="266.25" xlink:href="#Degradado_sin_nombre_70"/><linearGradient id="Degradado_sin_nombre_70-47" x1="159.38" y1="335.05" x2="526.65" y2="335.05" xlink:href="#Degradado_sin_nombre_70"/><linearGradient id="Degradado_sin_nombre_70-48" x1="243.82" y1="208.1" x2="308.29" y2="208.1" xlink:href="#Degradado_sin_nombre_70"/><linearGradient id="Degradado_sin_nombre_62-7" x1="201.57" y1="204.43" x2="252.44" y2="204.43" xlink:href="#Degradado_sin_nombre_62"/></defs><title>Rosita</title><g class="cls-2"><rect class="cls-3" x="171.73" y="594.05" width="256" height="126" transform="translate(543.65 1148.57) rotate(180)"/></g><path class="cls-4" d="M130.32,244.26s-25.33,27-19,61c0,0-21.33,14.67-23.33,20.67l5.33,2.67s-29,24.67-37,43.67c0,0,2,17.33,21,28,0,0-2.33,31.67,2,33,0,0,.33,10-14,18.67,0,0-5.67,11.33,28,21,0,0-14.67,27.67,22.67,56.33,0,0,14.33,32.67,55,18.33,0,0,22.67,40.67,62.67,28.33,0,0,32.33,58.33,86.67,6.67,0,0,47,23,86.26-18.68a13,13,0,0,0,3.18-6l1.8-7.74a7.1,7.1,0,0,1,3.42-4.53c5.53-3.17,17.52-13.27,14.68-40.42,0,0,6.33,4.33,13,2.33,0,0,5.67-.42,9-33.09l4.33-.91s17.67,12.67,25,10c0,0,6.67,4,12-43.33,0,0,35.67-16.33,42-49,0,0-5.67-27.67-39.67-53.67l1-6.67-11-7.33,1-10s-11.33-24-52.67-34.67L431,260.59s13.67-17.33,11-31h-9.67s-1.67-5-22.33-5.67c0,0-2.33-11.33-20.33-19l-2.67-3,1-23-36.67,4s-9-18.33-30-10c0,0,.67-11.67-33.67-4.67,0,0-54.33-9-57,17.33,0,0-40.67,19.67-38.67,27.67,0,0-27.67,2-40.33,11.33,0,0,1.51,13.57,3.83,18.67,0.64,1.4-.42,3-1.24,4.34-2.36,3.75-7.61,9.31-15.26,1.66Z" transform="translate(-55.8 -165.52)"/><path class="cls-5" d="M73.48,458.59" transform="translate(-55.8 -165.52)"/><path class="cls-6" d="M197.15,561.59c42.83,25.17,36-16.33,36-16.33C220.65,566.09,197.15,561.59,197.15,561.59Z" transform="translate(-55.8 -165.52)"/><path class="cls-7" d="M461.32,427.26c-1.67,10.25-9.67,16.67-9.67,16.67,16.33,18.67,8,24.67,8,24.67,7.33,6,18.33,5.91,18.33,5.91,6-4.76,3.67-35.91,3.67-35.91C470.32,436.92,461.32,427.26,461.32,427.26Z" transform="translate(-55.8 -165.52)"/><circle class="cls-8" cx="365.43" cy="333.32" r="6.58"/><circle class="cls-9" cx="335.94" cy="395.48" r="7.41"/><ellipse class="cls-10" cx="318.35" cy="387.61" rx="6.83" ry="7.87"/><path class="cls-11" d="M141.36,528.66a13.39,13.39,0,0,1,.36-10.39c9.11-20.58,2.76-32.51,2.76-32.51-15-30.83-45.38-19.67-45.38-19.67,0.74,3.4,6.88,7,6.88,7-12.33,6.67-4.33,23.33-4.33,23.33,6-14.33,22.33-8.17,22.33-8.17-14.67-.83-17,11.5-17,11.5-3.46,11.94,6.41,16.83,6.41,16.83,16,7.05,15.26-9,15.26-9-10.83,2.17-11.17-5.67-11.17-5.67,2.67-10.5,13-3.17,13-3.17-0.83,6.17,4.33,5.17,4.33,5.17a19.52,19.52,0,0,1-1.8,14.17c-8.13,14.83,4.8,22.17,4.8,22.17,14.17,6,22.33-3.33,22.33-3.33C148.08,538.53,143.26,533.41,141.36,528.66Z" transform="translate(-55.8 -165.52)"/><path class="cls-12" d="M179,479.26s17.83-13,21-22.5c0,0-7.33,4.83-15.67,1.83l-0.17-7.17a45,45,0,0,1-8.67,8.25,50.62,50.62,0,0,1-34.63,9.48c-2.55-.22-4.88-0.61-6-1.27,1.77,1.5,7.43,6.32,9.95,8.7C144.82,476.59,158.32,469.09,179,479.26Z" transform="translate(-55.8 -165.52)"/><path class="cls-13" d="M134.87,467.89l-0.55-.47A1.67,1.67,0,0,0,134.87,467.89Z" transform="translate(-55.8 -165.52)"/><path class="cls-14" d="M178.15,523.76c13.67-13.33,5.83-26.5,5.83-26.5-11.67-22-33.17-12-33.17-12l1.5,14.67a21.31,21.31,0,0,1,7.6-1.94,14.63,14.63,0,0,1,13.21,6.54c2.94,4.44,3.7,9.84-1.31,16.07-9.8,12.2-17.17,3.67-17.17,3.67-2.5-2-.33-10.5,4.33-10.33,5.32,0.19,3,4.67,3,4.67-3,3-4.17-2.5-4.17-2.5-2.33.83-2,4.67-2,4.67,3.33,9,11.33,1.67,11.33,1.67,4.58-4.25,4-7.88,2.35-10.45a9.92,9.92,0,0,0-8.8-4.25c-7.57.35-10.54,4.56-11.62,8.69A13.25,13.25,0,0,0,154.75,531C165.59,537.73,178.15,523.76,178.15,523.76Z" transform="translate(-55.8 -165.52)"/><path class="cls-15" d="M360.9,553.84s4.5,0,5-2.75c0,0-6.12-15-13.28-29.64a127.51,127.51,0,0,0-26.31-36.05c-6.42-6.16-12.81-11.94-13.2-10.9a6.5,6.5,0,0,0,0,6.59s11.54,22.25,7.29,42.75c0,0-16.5,54.75,31.25,56,0,0-26-2.25-25.75-48.5,0,0,5.78-.86,12.2,25a27.89,27.89,0,0,0,12.71,17.41c7,4.1,16.72,5.75,27.84-4C378.65,569.69,363.15,566.34,360.9,553.84Z" transform="translate(-55.8 -165.52)"/><path class="cls-16" d="M360.9,514.54a44.19,44.19,0,0,0,13,5.05s-12.5-8.19,1.25-25.47c0,0,26.75-32.78-21.75-48.78,0,0,7.69,15.45,5.15,30.84a38.49,38.49,0,0,0-.48,10c0.43,4.46,1.64,9.78,4.87,11.68,0,0-13.14-2.35-10.3-27.07,0,0,2.75-17.43-5-21.18,0,0,5.17,6.89-.91,24.52C341.51,489.29,347.12,506.31,360.9,514.54Z" transform="translate(-55.8 -165.52)"/><path class="cls-17" d="M260.32,412.54C248.65,416.15,249,430.37,249,430.37c0-2.89,6-5.11,6-5.11,18-1.67,16-8.33,16-8.33-8.67-3-7.22-10.5-7.22-10.5C262.21,407.59,260.32,412.54,260.32,412.54Z" transform="translate(-55.8 -165.52)"/><path class="cls-18" d="M327,434.3c-12.86.88-20.2-.21-23.81-1.11a8.77,8.77,0,0,0-5.41.35,9.88,9.88,0,0,1-7.83.26,10.12,10.12,0,0,0-6.44-.52L271,436.34c3.29-.15,12.21,2.19,18.67,4a33.11,33.11,0,0,0,15.27.69C336.77,435,327,434.3,327,434.3Z" transform="translate(-55.8 -165.52)"/><path class="cls-19" d="M321,451.42s6.33-10.17,9.67-11.83c0,0-9.63,3.15-15.78,5.65a26.72,26.72,0,0,1-8.37,1.95,31.33,31.33,0,0,0-10.19,2.67,6.34,6.34,0,0,1-6-.48c-4-2.65-12.8-7.08-28.35-8.45,0,0,8.13,7,9.07,10.5,0,0,5.33,15.74,19.24,11.64a34.62,34.62,0,0,1,9.78-1.48,8,8,0,0,1,2,.25C304.88,462.58,314.24,463.93,321,451.42Z" transform="translate(-55.8 -165.52)"/><ellipse class="cls-20" cx="342.68" cy="336.07" rx="10.83" ry="9.33"/><ellipse class="cls-21" cx="357.18" cy="356.57" rx="10.67" ry="9.17"/><ellipse class="cls-22" cx="332.76" cy="354.24" rx="9.92" ry="8.83"/><circle class="cls-23" cx="321.68" cy="369.91" r="6.84"/><ellipse class="cls-24" cx="341.35" cy="376.24" rx="9.5" ry="10.5"/><path class="cls-25" d="M412.32,355.76c31.83-29.5,80-15,80-15C419.65,289.42,412.32,355.76,412.32,355.76Z" transform="translate(-55.8 -165.52)"/><path class="cls-26" d="M104.9,433.59c10.75-14.25,10-37.5,10-37.5-2.87-.71-6.5,2.38-6.5,2.38-4.5-3.5-4-11.48-4-11.48,0.63-2.23,4-3.39,4-3.39C92.9,380,87.68,401.34,87.68,401.34a5.7,5.7,0,0,1-3.28-6c-2.44-.31-2.25,4-2.25,4-0.25,38,20.42,37,20.42,37-8.5-12.42-5.54-30-5.54-30q0,0.37,0,.75C97,418.29,104.9,433.59,104.9,433.59Z" transform="translate(-55.8 -165.52)"/><path class="cls-27" d="M148.15,465.34c-18.79-12.14-23-28.41-24-34.9a0.19,0.19,0,0,1,.37-0.06,48.39,48.39,0,0,0,28.1,32.47,55.21,55.21,0,0,1-5.06-5.81A38.32,38.32,0,0,1,140,433.95V414.47c-4.87-1.37-9.37,5.88-9.37,5.88l-1.5-18c-16.75,7.25-15.75,30.75-15.75,30.75C117.15,460.09,148.15,465.34,148.15,465.34Z" transform="translate(-55.8 -165.52)"/><path class="cls-28" d="M121.65,463.42c-8.5-7.67-29.17-10.83-29.17-10.83,11.83-3.17,31.5,6.33,31.5,6.33-30.67-36.17-50.5-1.17-50.5-1.17C79.32,463.59,121.65,463.42,121.65,463.42Z" transform="translate(-55.8 -165.52)"/><path class="cls-29" d="M178.15,439.59c36.12-21.25,31.5-66.33,31.5-66.33C201.65,412.59,178.15,439.59,178.15,439.59Z" transform="translate(-55.8 -165.52)"/><path class="cls-30" d="M209,407.76a10.53,10.53,0,0,0-3.68,6.89,16.23,16.23,0,0,1-3,7.53,46.4,46.4,0,0,1-8.4,8.81c-9.6,7.64-14.57,18.76-14.57,18.76,3.83-.5,13.83-10.17,13.83-10.17-1.5,1.83-1.83,13.39-1.83,13.39,4.33-.27,9.83-6.56,9.83-6.56l1.83,5c3.06-2.66,4-10,4.25-12.85a20.08,20.08,0,0,0,0-2c-0.09-6.84,5.88-13.27,5.88-13.27Z" transform="translate(-55.8 -165.52)"/><path class="cls-31" d="M225.82,479.26s9-12.5,5-31.83c0,0-11,27-24,33.17,0,0,16.17-16,17.67-33.17,0,0-29.31,22.17-39.33,44.5C185.15,491.92,210.32,501.92,225.82,479.26Z" transform="translate(-55.8 -165.52)"/><circle class="cls-32" cx="83.01" cy="222.27" r="7.17"/><circle class="cls-33" cx="143.73" cy="375.17" r="4.92" transform="translate(-278.99 46) rotate(-45)"/><circle class="cls-34" cx="121.02" cy="224.5" r="9.39"/><circle class="cls-35" cx="142.43" cy="221.49" r="6.92"/><circle class="cls-36" cx="115.18" cy="247.4" r="8.33"/><circle class="cls-37" cx="103.4" cy="211.29" r="8.22"/><circle class="cls-38" cx="104.49" cy="195.07" r="7.13"/><circle class="cls-39" cx="103.26" cy="229.54" r="8.08"/><circle class="cls-40" cx="96.88" cy="273.44" r="6.7"/><ellipse class="cls-41" cx="106.18" cy="262.07" rx="7.33" ry="6.33"/><circle class="cls-42" cx="133.08" cy="240.45" r="6.56"/><circle class="cls-43" cx="120.85" cy="263.74" r="5.67"/><circle class="cls-44" cx="109.84" cy="277.22" r="5.34"/><circle class="cls-45" cx="103.94" cy="289.14" r="6.58"/><ellipse class="cls-46" cx="95.59" cy="246.68" rx="7.67" ry="9.05"/><circle class="cls-47" cx="83.7" cy="237.76" r="6.48"/><path class="cls-48" d="M246.65,455.76c-10,22.67-26.5,41.17-26.5,41.17-15.06,13-20.06,19.24-21.64,22.18A2,2,0,0,0,200,522a12.75,12.75,0,0,0,8.81-1.57L199,528.23a29.06,29.06,0,0,1-17.37,6.24l-5.6.12c6.83,20.5,24.67,20.5,24.67,20.5,26-.5,32.9-27.17,32.9-27.17l4.1,4.9c13.83-21.1,14.33-38.7,14.33-38.7C255.65,458.32,246.65,455.76,246.65,455.76ZM225,520.92s-12.29,8.33-10.56,14l-9.27,5.67s30.33-48.83,39.67-73.83C244.82,466.76,231.48,505.76,225,520.92Z" transform="translate(-55.8 -165.52)"/><path class="cls-49" d="M294.15,556.59s-29.67,39-52.5,13.1c0,0-1.67,28.56,37.67,24.73,0,0,30.33-2.33,35.33-20.5C314.65,573.92,294.48,559.09,294.15,556.59Z" transform="translate(-55.8 -165.52)"/><path class="cls-50" d="M304,488.76c1.72,4.84-.65,12.25-2.55,16.89a32.52,32.52,0,0,1-3.22,5.73c-3.09,4.61-2.56,13.38-2.56,13.38,3.83,25.17,16.5,31.83,16.5,31.83-6-10.83.17-36.67,0.17-36.67C316.32,497.42,304,488.76,304,488.76Z" transform="translate(-55.8 -165.52)"/><path class="cls-51" d="M259.15,566.84s28.25,3.36,30-24.57c0,0,2.5-22.43-7.5-31.18,0,0,3.75,47.5-24,39.5,0,0,38-3.25,10.75-75.75,0,0-12.76-5.41-4.5,27,0,0,9.37,37.87-10.55,40.44a3.86,3.86,0,0,1-4.17-3.29c-0.28-1.42-1.66-2.4-6-.65C243.15,538.34,224.4,553.59,259.15,566.84Z" transform="translate(-55.8 -165.52)"/><path class="cls-52" d="M240.81,337a29.61,29.61,0,0,0-24.5-.6s-10.33,56.83,36.5,58.83c0,0,22.33,1.17,29.17-20.5l2.67-24.5L273.76,358a2.4,2.4,0,0,1-2.36.23L268,356.69a2,2,0,0,1-1.22-1.72c-0.08-1.45-1-4.08-5.94-6.55a25.6,25.6,0,0,0-17.88-1.7,24.46,24.46,0,0,0-7.71,3.31,1.1,1.1,0,0,0-.19,1.63c1.3,1.44,5.56,4.09,19.42,6.27,0,0-8.33,1-11.17-.33,0,0,4,4,20,2.67,0,0-2.82,4.34-13.37,2.78a26.47,26.47,0,0,1-12.19-5.24c-0.71-.55-1.4-1.11-2-1.65a14.36,14.36,0,0,0-6-3.27l-10.91-2.79s-1-5.83,5.5-6.83c0,0,12.08-.14,16.77-4.29A1.19,1.19,0,0,0,240.81,337Z" transform="translate(-55.8 -165.52)"/><path class="cls-53" d="M234.41,346.66l1.36,0.3c0.66,0.29,2.1-.24,2.73-0.6l6-2.12a8.91,8.91,0,0,1,2.42-.64h7.21v-0.93a1.24,1.24,0,0,0-1.24-1.24h-7.76a4.5,4.5,0,0,0-2.45.73l-7,3C235.34,345.43,234,346.47,234.41,346.66Z" transform="translate(-55.8 -165.52)"/><path class="cls-54" d="M72.68,375.46l-1.7-.71A17.89,17.89,0,0,0,72.68,375.46Z" transform="translate(-55.8 -165.52)"/><path class="cls-55" d="M142.48,363.59c3.5-1.5,47.33-49,47.33-49,4,4.17,3,18.83,3,18.83-20.17-8.5-24.83,24.17-24.83,24.17,0,1.17,10.67-2.17,10.67-2.17-1.67,8.67,3.67,21.33,3.67,21.33a27.7,27.7,0,0,0,17.83-12.67c3.83,6.17,7.33,6.67,7.33,6.67,6-3,3.5-24.83,3.5-24.83-1.17-6.83-4.5-8-7.54-7.37a8.82,8.82,0,0,0-6.62,6.22,56.66,56.66,0,0,1-9,16.82c16.17-29,3.5-47.83,3.5-47.83l14.83-7.17,24-21.67c1.17-2.67-1.67-3.83-1.67-3.83-10.19-3-17.59,4.18-21.4,9.33a25.68,25.68,0,0,0-3.6,6.81c-2.55,7.29-5.5,6.86-5.5,6.86-1.83-4.5.17-12.33,0.17-12.33,2-20.17,23.5-18.5,23.5-18.5v-6c-1-2.17-13.5,2.34-13.5,2.34h-7c-7.83-6.5-13.67-5.5-13.67-5.5-21.33,4.17-23.67,0-23.67,0,6.67-3.83,4.5-8.67,4.5-8.67-6.17-8.17-11.5-2-11.5-2-5.67,10.07,2.16,14,7.48,15.38a15.57,15.57,0,0,0,7,.2c20.75-4,21.51,2.41,21.51,2.41-1.17,7.17-14.17,14.17-14.17,14.17-42.5,17.67-46.83-29.17-44.83-23.5,0.12,0.35.27,0.7,0.42,1.06,2.43,5.43,8.74,11.51,8.74,11.51,18.5,19.57,42.83,0,42.83,0l-5.83-.4c-23.83,2.5-32-7.5-32-7.5l-15.33-17.17c-7.83,8.5-6,30.67-6,30.67,0.92,18.67,30.33,23,30.33,23,15.5,2,31.17-15.67,31.17-15.67,9-17.67,10.67-9.5,10.67-9.5-2.83,11.33-12.33,26.17-12.33,26.17-13.33,14.83-35.5,20.17-35.5,20.17-3.33,2.33-6.17,12.67-6.5,11.5s0-8.83,0-8.83c-11.67,0-58.83,33-58.83,33,7.17-11.33,50.83-35,50.83-35l-9-.33,9.83-1.83c19.67-5.17,29.5-11.67,29.5-11.67-7.5-4.5-44.17-1.67-44.17-1.67a35.12,35.12,0,0,0-20.5,9.83L117,326.09c-35.17,14.67-48.42,39.33-48.42,39.33L99,366.59c31.33,2.67,49-24,49-24,10.33-14.33,23.83-16.5,23.83-16.5-51.12,62.32-90.64,52.49-99.13,49.37C113.62,392,142.48,363.59,142.48,363.59Z" transform="translate(-55.8 -165.52)"/><path class="cls-56" d="M250.32,270.26c-0.18,9.56,3.79,10.66,7.54,9.58A12.12,12.12,0,0,0,265.4,273c5.56-12.28,25.92-20.76,25.92-20.76-52.33-3.67-56,27.92-56,27.92C239,282.76,250.32,270.26,250.32,270.26Z" transform="translate(-55.8 -165.52)"/><path class="cls-57" d="M488.15,348.84s-19.75,3.5-27.25-1.5c0,0,13,0,14.25-3.25,0,0-35-11-57.25,15.75,0,0,28.5-18.5,64.25,10.25,0,0,27.78,17.16,34.5,14.89,0,0-9.75,6.86-29.5-5.39,0,0-44-30.25-79.75-4.75,0,0,.5-52-4-59.75l10,12s14.25-20.75,60.5-12c0,0-11.25-20.75-58-27,0,0,6-7,3.25-14.5,0,0-6,1.25-7,2.5s2.25-4.25,0-12.5l-20.75-9.25s19-.5,25,9.25a30.2,30.2,0,0,0,19.25-26.75s-13-7-22.75-6.25c0,0-21,28-43.5,6.25a41,41,0,0,0,31-3s-48-4.75-43.5-19c0,0,8.25-2,11.5,6.25,0,0,13.5,10.5,31,9.25,0,0-9.5-20-37.75-20.75,0,0-12.75-3.5-19.25-13,0,0,11.5-.25,20,8.25l13.75,0.25-0.25-12.25H338.65s0-13.5-17-11.25l-11.5,2s-0.5,12.75,23,19.75c0,0,10,5.25,6.75,9,0,0-10,2.5-12.25,12,0,0,3.5-20.25-17.5-20.5,0,0-16.75,2.25-8.25,23,0,0,8,14.75,24,6.25,0,0,6.75,15.25-2.5,26.25,0,0-4.75-24-22.25-17.25,0,0-15.25,3.25-39.5-15.5,0,0-26.5-21.25-50.75-7.75,0,0-52.5,6.75-51.5,14.25,0,0,11.25-1.5,24.75,9.25,0,0,9,7.5,32.5,5.25,0,0,7,6.25-23,9.25,0,0,18.5,9.75,46.75-.25,0,0,18.5-15,31.25-11,0,0-28.75-21.5-70.25-15.75,0,0,23-16.16,78.71,13.4A42.75,42.75,0,0,0,294.51,248c4.95,0.65,11.31,3,12.64,10.38,0,0-47.75,1.5-32.5,30.25,0,0,13,14.5,17-11.25,0,0,0-13.5,11.25-13.5,0,0-1,22.5-9.25,29.25,0,0,11.46,8.16,18,1a10.6,10.6,0,0,0,2.33-9.74c-1.54-6.2-4.28-18.81-1.85-21.05,0,0,1.5,12,8.25,18.75,0,0,4.25,8.25.25,11.75,0,0,20-4.25,17.75-13.5,0,0,0-10.75-12.75-15.75,0,0,6.23-6.05,8.18-14a7.43,7.43,0,0,0-1.48-6.39c-1.55-2-2.57-5.34,3.06-9.4l12.5-17.75,9.25,14s-3.25,25,27,24.25c0,0,0,6.25,11,8,0,0-41.25-2.75-55.5-15.25,0,0-.75,7-9,16,0,0,20.25,9.5,9.25,26.5,0,0,30.25,14.5,18.25-11,0,0-10-14-18.75-16.25l13.75-3.5s15.25,10,14.75,28.25c0,0,10.75,7.25,16.25,45.5,0,0,6.5-30.5-15-65.75,0,0,6.5,5,10.75-3.75,0,0,31.75,6.25,19,22.75,0,0,1.28-11.49-12.66-14.45a4.87,4.87,0,0,0-5.65,3.25c-1.32,4.17-1.43,11,8.35,16.11a31.72,31.72,0,0,0,14.49,3.53c8.4,0.08,25.54,1.06,32.22,7.56,0,0-16.51.75-18.5,11.5,0,0-11.75.75-27-14.75,0,0,12,66.5-2.25,68.5,0,0-4.75,3.25-8-37,0,0-6.25-33.75-15.75-35.75,0,0-7.5,16.5-32.5,1.5,0,0-23.5,12.25-44.5,4.25,0,0-20,3.75-26.25-5.75,0,0-7.82,6.59-34.75,7.5,0,0-14,7.5-8.25,29.75,0,0,22-7.75,71,4.75l2,33.59a62.88,62.88,0,0,1-.72,13.95c-1.7,10.34-1.86,30.51,26.47,18.72,0,0,5.22,5.13-5.92,8a20.52,20.52,0,0,0-8.66,4.63l-6.42,5.84,1.75,3s34.38-7.11,47.41,13.25c0,0,2.09-22.75-16.41-33.25,0,0,2.5-4.25-5.25-14.75,0,0,49,18.5,57-32.5,0,0,9.43,15.14.56,45a34.29,34.29,0,0,0,1.74,24.42,27.11,27.11,0,0,0,11.2,12.33s4.5-7.75,4-12.25c0,0,5.2,10.92,9.4,15.87-3.08-2.32-8.67-4.89-13.6,1.52a19.29,19.29,0,0,0-3.81,11.06,141.17,141.17,0,0,0,2.77,33,11.86,11.86,0,0,1,9.91-6.27,4.68,4.68,0,0,0,3.64-2.25,5.93,5.93,0,0,0,.95-3.91s9,9,14,8.75c0,0,6.5-1.42,16,3.67,0,0,7.75-11.92,1.25-29.17h1.93a8.2,8.2,0,0,0,5.31-2c1.77-1.51,5.07-3.26,10.76-3,0,0-16.7-33.63-39.18-21.43a10.05,10.05,0,0,0-5.44,8.27,4.18,4.18,0,0,0,.37,2.16s-14.25-20-15.25-27c0,0-1-21.25-5.25-25,0,0,5.25,1.5,8.25,18,0,0,2.67,15.76,49.79,24.12a3.86,3.86,0,0,0,4.06-1.89c2.11-3.8,4.19-13.14-4.85-33.48,0,0,22.25,46.25,58.5,19.5,0,0-22.25-2.25-23.5-26.25,0,0,12.5,18.75,28.5,16.25,0,0,10-4.5,14.5-18.75C526.65,389.09,512.65,357.34,488.15,348.84ZM324,362.88c16,6.42,27.25,0,27.25,0C341.52,376.92,324,362.88,324,362.88Zm45-14s-2.87,6.38-12.12,7.25c0,0-20.87-16.25-31.25-1.75,0,0,5,11.63,26.25,4.63,0,0-12.37,10.75-30.75-3.37,0,0-21.37-4-5.5-17.37,0,0,21.25-13.87,59.75-1.12C375.4,337.09,325.9,338.84,369,348.84Zm59.21,128.67c-8.67-5.83-14.75-25.08-14.75-25.08C420,450.51,428.23,477.51,428.23,477.51Z" transform="translate(-55.8 -165.52)"/><path class="cls-58" d="M251.32,188.76s8.5-2.83,12,8c0,0,14.67,9.83,26.17-1.17,0,0,13.33-.67,4,13.67,0,0-5.5,6.5-26.17.33,0,0-18.17-2.83-23.5,3.83,0,0,16,3.83,35.17,18.5,0,0,8.33,8.5,16.67,6.17,0,0-7.5-.83-8.83-5.5,0,0-1.11-3,5.83-8.67,0,0,17-25.67,3-31.17,0,0,8.49-1.06,12.64-13.67,0,0-15.47-5.5-23.31,5.33,0,0-20.5-13.17-37.83,1C247.15,185.42,245,190.92,251.32,188.76Z" transform="translate(-55.8 -165.52)"/><path class="cls-59" d="M226.39,208.19c3-4.75,8.71-12.33,14.67-13.18,8.75-1.25,8.58,10.75,3.5,11.5l-2.82-.05a2.38,2.38,0,0,1-2.38-2.35c0-1,.65-1.85,2.86-1.93,4.83-.17,0-9.5-6.83-1.92s10.42,12.67,14.67,7.33c3.12-3.92,5-15.86-6.71-16.08a18.15,18.15,0,0,0-9.43,2.56,35.83,35.83,0,0,0-10.78,9.18l-1.68.06a20,20,0,0,0-10.66,3.52c-4,2.78-8.9,6.87-9.24,10.5l17.95-4.24A11.22,11.22,0,0,0,226.39,208.19Z" transform="translate(-55.8 -165.52)"/></svg>