<svg id="Degradado_Blanco" data-name="Degradado Blanco" xmlns="http://www.w3.org/2000/svg" xmlns:xlink="http://www.w3.org/1999/xlink" viewBox="0 0 414.29 455.36"><defs><style>.cls-1{font-size:83px;fill:none;font-family:Century Gothic;font-weight:700;letter-spacing:20px;}.cls-2{fill:url(#Degradado_sin_nombre_36);}.cls-3{fill:url(#Degradado_sin_nombre_36-2);}.cls-4{fill:url(#Degradado_sin_nombre_36-3);}.cls-5{fill:url(#Degradado_sin_nombre_36-4);}.cls-6{fill:url(#Degradado_sin_nombre_36-5);}.cls-7{clip-path:url(#clip-path);}.cls-8{fill:url(#Degradado_sin_nombre_36-6);}</style><linearGradient id="Degradado_sin_nombre_36" x1="225.04" y1="484.55" x2="259.38" y2="484.55" gradientUnits="userSpaceOnUse"><stop offset="0" stop-color="#aa851d"/><stop offset="0.1" stop-color="#b18b25"/><stop offset="0.49" stop-color="#cca645"/><stop offset="1" stop-color="#e1b95d"/></linearGradient><linearGradient id="Degradado_sin_nombre_36-2" x1="96.23" y1="381.82" x2="510.52" y2="381.82" xlink:href="#Degradado_sin_nombre_36"/><linearGradient id="Degradado_sin_nombre_36-3" x1="405.36" y1="451.01" x2="418.13" y2="451.01" xlink:href="#Degradado_sin_nombre_36"/><linearGradient id="Degradado_sin_nombre_36-4" x1="315.61" y1="349.2" x2="372.4" y2="349.2" xlink:href="#Degradado_sin_nombre_36"/><linearGradient id="Degradado_sin_nombre_36-5" x1="327.77" y1="365.43" x2="351.05" y2="365.43" xlink:href="#Degradado_sin_nombre_36"/><clipPath id="clip-path" transform="translate(-96.23 -192.31)"><text class="cls-1" transform="translate(199.8 642.11)">JAC</text></clipPath><linearGradient id="Degradado_sin_nombre_36-6" x1="103.57" y1="420.36" x2="309.82" y2="420.36" xlink:href="#Degradado_sin_nombre_36"/></defs><title>favicon</title><path class="cls-2" d="M233.07,511.6c-1.5-4.9,9.14-12.12,9.14-12.12,5.63-13.13,17.17-46.88,17.17-46.88C251.3,474.24,225,516.5,225,516.5Z" transform="translate(-96.23 -192.31)"/><path class="cls-3" d="M476.19,340.8l0.87-5.77-9.52-6.35L468.4,320s-9.81-20.77-45.58-30l-2.31-15.87s11.83-15,9.52-26.83h-6.88a3.26,3.26,0,0,1-2.17-.85c-1.44-1.29-5.81-3.64-18.65-4.05,0,0-2-9.81-17.6-16.44l-2.31-2.6,0.87-19.91-31.74,3.46s-7.79-15.87-26-8.66c0,0,.58-10.1-29.14-4,0,0-47-7.79-49.33,15,0,0-35.2,17-33.47,23.95,0,0-23.95,1.73-34.91,9.81,0,0,1.31,11.75,3.32,16.16,0.55,1.21-.37,2.63-1.07,3.76-2,3.25-6.58,8.06-13.21,1.44l-7.5-4.33s-21.93,23.37-16.44,52.8c0,0-18.46,12.69-20.2,17.89l4.62,2.31s-25.1,21.35-32,37.79c0,0,1.73,15,18.18,24.23,0,0-2,27.41,1.73,28.56,0,0,.29,8.66-12.12,16.16,0,0-4.9,9.81,24.23,18.18,0,0-12.69,23.95,19.62,48.76,0,0,12.41,28.27,47.6,15.87,0,0,19.62,35.2,54.24,24.52,0,0,28,50.49,75,5.77,0,0,40.63,19.9,74.55-16a11.52,11.52,0,0,0,2.86-5.28l1.57-6.77a6,6,0,0,1,2.9-3.83c4.76-2.71,15.21-11.44,12.74-35,0,0,5.48,3.75,11.25,2,0,0,4.9-.37,7.79-28.64l3.75-.79s15.29,11,21.64,8.66c0,0,5.77,3.46,10.39-37.51,0,0,30.87-14.14,36.35-42.41C510.52,387.25,505.61,363.31,476.19,340.8Zm-2.6,2.74s-41.69-12.55-69.24,13C404.35,356.53,410.7,299.11,473.59,343.54ZM261.4,209.1c15-12.26,32.75-.87,32.75-0.87,6.78-9.38,20.17-4.62,20.17-4.62-3.59,10.91-10.94,11.83-10.94,11.83,12.12,4.76-2.6,27-2.6,27-6,4.86-5,7.5-5,7.5,1.15,4,7.65,4.76,7.65,4.76-7.21,2-14.43-5.34-14.43-5.34-16.59-12.69-30.44-16-30.44-16,4.62-5.77,20.34-3.32,20.34-3.32,17.89,5.34,22.65-.29,22.65-0.29,8.08-12.41-3.46-11.83-3.46-11.83-10,9.52-22.65,1-22.65,1C272.36,209.53,265,212,265,212,259.52,213.86,261.4,209.1,261.4,209.1Zm-31.46,18.53a17.3,17.3,0,0,1,9.23-3l1.45-.05a31,31,0,0,1,9.33-7.94,15.71,15.71,0,0,1,8.16-2.22c10.17,0.19,8.51,10.53,5.81,13.91-3.68,4.62-18.61.22-12.69-6.35s10.1,1.51,5.91,1.66c-1.92.07-2.46,0.84-2.48,1.67a2.06,2.06,0,0,0,2.06,2l2.44,0c4.4-.65,4.54-11-3-10-5.16.74-10.08,7.3-12.7,11.41a9.71,9.71,0,0,1-6,4.26l-15.54,3.67C222.24,233.58,226.46,230,229.94,227.63ZM110.39,373.58a15.48,15.48,0,0,1-1.47-.61l1.47,0.61c7.35,2.7,41.56,11.2,85.8-42.73,0,0-11.68,1.88-20.63,14.28,0,0-15.29,23.08-42.41,20.77l-26.33-1s11.47-21.35,41.91-34l-12.84-5.77a30.4,30.4,0,0,1,17.74-8.51s31.74-2.45,38.23,1.44c0,0-8.51,5.63-25.53,10.1l-8.51,1.59,7.79,0.29s-37.79,20.48-44,30.29c0,0,40.82-28.56,50.92-28.56,0,0-.29,6.64,0,7.65s2.74-7.93,5.63-10c0,0,19.19-4.62,30.73-17.45,0,0,8.22-12.84,10.67-22.65,0,0-1.44-7.07-9.23,8.22,0,0-13.56,15.29-27,13.56,0,0-25.46-3.75-26.25-19.91,0,0-1.59-19.19,5.19-26.54l13.27,14.86s7.07,8.66,27.7,6.49l5,0.35s-21.06,16.94-37.07,0c0,0-5.46-5.26-7.57-10-0.14-.31-0.26-0.61-0.37-0.92-1.73-4.9,2,35.63,38.8,20.34,0,0,11.25-6.06,12.26-12.26,0,0-.66-5.56-18.62-2.09a13.48,13.48,0,0,1-6.07-.17c-4.6-1.24-11.38-4.6-6.47-13.32,0,0,4.62-5.34,10,1.73,0,0,1.88,4.18-3.89,7.5,0,0,2,3.61,20.48,0,0,0,5-.86,11.83,4.76h6.06s10.82-3.9,11.68-2v5.19s-18.61-1.44-20.34,16c0,0-1.73,6.78-.14,10.67,0,0,2.55.36,4.76-5.94a22.22,22.22,0,0,1,3.12-5.89c3.3-4.45,9.7-10.66,18.52-8.07,0,0,2.45,1,1.44,3.32L225.91,314l-12.84,6.2s11,16.3-3,41.4A49,49,0,0,0,217.83,347a7.63,7.63,0,0,1,5.73-5.38c2.63-.5,5.52.47,6.53,6.38,0,0,2.16,18.9-3,21.49,0,0-3-.43-6.35-5.77a24,24,0,0,1-15.43,11s-4.62-11-3.17-18.46c0,0-9.23,2.89-9.23,1.88,0,0,4-28.27,21.49-20.92,0,0,.87-12.69-2.6-16.3,0,0-37.94,41.11-41,42.41C170.81,363.31,145.82,387.86,110.39,373.58ZM256.14,342c-4.06,3.59-14.51,3.71-14.51,3.71-5.63.87-4.76,5.91-4.76,5.91l9.44,2.41a12.43,12.43,0,0,1,5.21,2.83c0.53,0.47,1.13,1,1.74,1.43a22.91,22.91,0,0,0,10.55,4.53c9.14,1.35,11.58-2.41,11.58-2.41-13.85,1.15-17.31-2.31-17.31-2.31,2.45,1.15,9.66.29,9.66,0.29-12-1.88-15.68-4.18-16.81-5.43a1,1,0,0,1,.16-1.41,21.17,21.17,0,0,1,6.67-2.86,22.16,22.16,0,0,1,15.48,1.47c4.28,2.14,5.07,4.42,5.14,5.67a1.75,1.75,0,0,0,1.06,1.48l2.95,1.31a2.08,2.08,0,0,0,2-.2l9.42-6.67L291.54,373c-5.91,18.75-25.24,17.74-25.24,17.74-40.53-1.73-31.59-50.92-31.59-50.92a25.63,25.63,0,0,1,21.2.52A1,1,0,0,1,256.14,342Zm1.4,2.75a3.9,3.9,0,0,1,2.12-.63h6.72a1.07,1.07,0,0,1,1.07,1.07V346h-6.24a4.22,4.22,0,0,0-2.09.56l-3.21,1.84a2,2,0,0,1-1.78.09l-0.56-.25a0.49,0.49,0,0,1-.07-0.86Zm60.11,185.6s-11-5.77-14.28-27.55c0,0-.46-7.59,2.21-11.58a28.15,28.15,0,0,0,2.79-5c1.64-4,3.7-10.43,2.21-14.62,0,0,10.67,7.5,7.21,27C317.8,498.62,312.46,521,317.65,530.35Zm-8.68-82a6.9,6.9,0,0,0-1.77-.22,30,30,0,0,0-8.47,1.28c-12,3.55-16.66-10.08-16.66-10.08-0.81-3-7.85-9.09-7.85-9.09,13.45,1.19,21.07,5,24.53,7.31a5.48,5.48,0,0,0,5.18.42,27.11,27.11,0,0,1,8.82-2.31A23.13,23.13,0,0,0,320,434c5.32-2.16,13.66-4.89,13.66-4.89-2.89,1.44-8.37,10.24-8.37,10.24C319.46,450.15,311.37,449,309,448.34ZM282,409.47s1.73,5.77-13.85,7.21c0,0-5.19,1.93-5.19,4.43,0,0-.25-10.7,7.9-14.68a5.71,5.71,0,0,0,2.73-2.67,10.48,10.48,0,0,1,2.16-3.37S274.52,406.87,282,409.47Zm29.43,20.9a28.66,28.66,0,0,1-13.22-.6c-5.59-1.6-13.31-3.62-16.16-3.49l10.77-2.65a8.76,8.76,0,0,1,5.57.45,8.55,8.55,0,0,0,6.78-.22,7.59,7.59,0,0,1,4.68-.3c3.12,0.78,9.48,1.73,20.61,1C330.49,424.51,339,425.15,311.46,430.37Zm-175.2-4.09s-17.89.87-17.67-32c0,0-.16-3.73,1.95-3.46a4.93,4.93,0,0,0,2.84,5.19s4.52-18.5,17.93-15.36c0,0-2.92,1-3.46,2.93,0,0-.43,6.91,3.46,9.94,0,0,3.14-2.67,5.63-2.06,0,0,.65,20.12-8.66,32.46,0,0-6.83-13.24-6.83-22.94q0-.33,0-0.65S128.9,415.53,136.26,426.27Zm23-29.43,1.3,15.58s3.89-6.27,8.11-5.08V424.2a33.17,33.17,0,0,0,6.55,20,47.78,47.78,0,0,0,4.38,5,41.88,41.88,0,0,1-24.32-28.1,0.16,0.16,0,0,0-.32.05c0.82,5.62,4.48,19.71,20.75,30.21,0,0-26.83-4.54-30.08-27.91C145.63,423.46,144.77,403.12,159.27,396.85Zm67.58,31.36c-0.22,2.46-1,8.82-3.68,11.13L221.58,435s-4.76,5.44-8.51,5.68c0,0,.29-10,1.59-11.59,0,0-8.66,8.37-12,8.8a48.87,48.87,0,0,1,12.61-16.24,40.16,40.16,0,0,0,7.27-7.62h0a14,14,0,0,0,2.6-6.52,9.11,9.11,0,0,1,3.18-6L232,414.95s-5.17,5.56-5.09,11.49A17.38,17.38,0,0,1,226.85,428.2Zm-25.17.88s20.34-23.37,27.26-57.41C228.94,371.67,232.94,410.69,201.68,429.09Zm-16.24-.55a5.8,5.8,0,1,1-5.8-5.8A5.8,5.8,0,0,1,185.44,428.54Zm-4.1-9.84c0-3,2.84-5.48,6.35-5.48s6.35,2.45,6.35,5.48-2.84,5.48-6.35,5.48S181.34,421.73,181.34,418.7Zm4.41,17.74a5.7,5.7,0,1,1-5.7,5.7A5.7,5.7,0,0,1,185.75,436.44Zm5.1,0a4.62,4.62,0,1,1,4.62-4.62A4.62,4.62,0,0,1,190.85,436.44ZM188.26,406a7.21,7.21,0,1,1,7.21,7.21A7.21,7.21,0,0,1,188.26,406Zm12.12,9.23a4.9,4.9,0,1,1-4.9,4.9A4.9,4.9,0,0,1,200.38,415.24Zm18.68-25.68a6,6,0,1,1,6-6A6,6,0,0,1,219.06,389.56ZM216.64,400a5.68,5.68,0,1,1-5.68-5.68A5.68,5.68,0,0,1,216.64,400Zm-16.11-5.68a8.13,8.13,0,1,1,8.13-8.13A8.13,8.13,0,0,1,200.53,394.31Zm-15.25-26.67a7.12,7.12,0,1,1-7.12,7.12A7.12,7.12,0,0,1,185.28,367.63Zm-5.23-6.92a6.17,6.17,0,1,1,6.17,6.17A6.17,6.17,0,0,1,180.05,360.71Zm5.11,22.84a7,7,0,1,1-7,7A7,7,0,0,1,185.16,383.55Zm-6.64,14c3.66,0,6.64,3.51,6.64,7.84s-3,7.84-6.64,7.84-6.64-3.51-6.64-7.84S174.86,397.54,178.52,397.54Zm-10.3,5.72a5.61,5.61,0,1,1,5.61-5.61A5.61,5.61,0,0,1,168.22,403.27Zm3.66-25.68a4.25,4.25,0,1,1,4.25-4.25A4.25,4.25,0,0,1,171.89,377.59Zm1.95,6.67a6.2,6.2,0,1,1-6.2-6.2A6.2,6.2,0,0,1,173.84,384.25Zm-9.62,69.33a14.5,14.5,0,0,0,5.18,1.1,43.81,43.81,0,0,0,30-8.21,38.93,38.93,0,0,0,7.5-7.14l0.14,6.2c7.21,2.6,13.56-1.59,13.56-1.59-2.74,8.22-18.18,19.47-18.18,19.47-17.89-8.8-29.57-2.31-29.57-2.31-2.18-2.06-7.08-6.23-8.61-7.53a1.45,1.45,0,0,1-.48-0.41Zm77.56-17.72c-1.3,14.86-15.29,28.71-15.29,28.71,11.25-5.34,20.77-28.71,20.77-28.71,3.46,16.73-4.33,27.55-4.33,27.55-13.42,19.62-35.2,11-35.2,11C216.41,455.06,241.78,435.87,241.78,435.87Zm-130.69,8.94s17.17-30.29,43.71,1c0,0-17-8.22-27.26-5.48,0,0,17.89,2.74,25.24,9.38C152.77,449.71,116.13,449.86,111.09,444.81Zm55.68,71.4s-11.19-6.35-4.15-19.19a16.89,16.89,0,0,0,1.56-12.26s-4.47.87-3.75-4.47c0,0-8.94-6.35-11.25,2.74,0,0,.29,6.78,9.66,4.9,0,0,.63,13.89-13.21,7.79,0,0-8.54-4.23-5.54-14.57,0,0,2-10.67,14.71-10,0,0-14.14-5.34-19.33,7.07,0,0-6.92-14.43,3.75-20.2,0,0-5.31-3.11-6-6.06,0,0,26.3-9.66,39.28,17,0,0,5.49,10.33-2.39,28.14a11.59,11.59,0,0,0-.31,9c1.65,4.11,5.81,8.54,16.26,7.15C186.1,513.33,179,521.41,166.77,516.21Zm14.66-8a11.47,11.47,0,0,1-4.91-12.61c0.93-3.57,3.51-7.22,10.06-7.52a8.59,8.59,0,0,1,7.62,3.68c1.46,2.22,1.93,5.36-2,9,0,0-6.92,6.35-9.81-1.44,0,0-.29-3.32,1.73-4,0,0,1,4.76,3.61,2.16,0,0,2-3.87-2.6-4-4-.14-5.91,7.21-3.75,8.94,0,0,6.37,7.39,14.86-3.17,4.33-5.39,3.68-10.07,1.13-13.91a12.66,12.66,0,0,0-11.43-5.66,18.44,18.44,0,0,0-6.57,1.68L178,468.61S196.63,460,206.72,479c0,0,6.78,11.4-5,22.94C201.68,501.93,190.8,514,181.42,508.19Zm36.7,26.49s20.34,3.89,31.16-14.14C249.28,520.54,255.19,556.46,218.12,534.68Zm31.5-29.14s-6,23.08-28.48,23.51c0,0-15.43,0-21.35-17.74l4.85-.11a25.15,25.15,0,0,0,15-5.4l8.54-6.74a11,11,0,0,1-7.63,1.36,1.73,1.73,0,0,1-1.3-2.51c1.36-2.54,5.69-8,18.73-19.2,0,0,14.28-16,22.94-35.63,0,0,7.79,2.22,4.62,33.2,0,0-.43,15.24-12.41,33.5Zm8.31,9c3.79-1.51,5-.66,5.22.56a3.34,3.34,0,0,0,3.61,2.85c17.25-2.23,9.13-35,9.13-35-7.15-28.05,3.89-23.37,3.89-23.37,23.59,62.75-9.3,65.56-9.3,65.56,24,6.92,20.77-34.19,20.77-34.19,8.66,7.57,6.49,27,6.49,27-1.51,24.17-26,21.27-26,21.27C241.71,527.75,257.93,514.55,257.93,514.55Zm31.3,48.54c-34,3.32-32.6-21.41-32.6-21.41,19.76,22.45,45.44-11.34,45.44-11.34,0.29,2.16,17.74,15,17.74,15C315.49,561.08,289.24,563.1,289.24,563.1Zm61.88-17.9a24.14,24.14,0,0,1-11-15.07c-5.55-22.37-10.56-21.63-10.56-21.63-0.22,40,22.29,42,22.29,42-41.33-1.08-27-48.47-27-48.47,3.68-17.74-6.31-37-6.31-37a5.62,5.62,0,0,1,0-5.7c0.33-.9,5.87,4.1,11.42,9.43a110.36,110.36,0,0,1,22.77,31.21c6.19,12.69,11.49,25.65,11.49,25.65-0.43,2.38-4.33,2.38-4.33,2.38,1.95,10.82,15.36,13.72,15.36,13.72C365.58,550.17,357.14,548.74,351.11,545.2Zm-2.73-107.45c6.71,3.25,4.33,18.33,4.33,18.33-2.45,21.39,8.91,23.43,8.91,23.43-2.8-1.65-3.85-6.25-4.22-10.11a33.31,33.31,0,0,1,.41-8.63c2.2-13.32-4.46-26.7-4.46-26.7,42,13.85,18.82,42.22,18.82,42.22-11.9,15-1.08,22-1.08,22A38.25,38.25,0,0,1,359.85,494c-11.93-7.12-16.78-21.85-12.25-35C352.85,443.7,348.38,437.74,348.38,437.74Zm35.41,53.08c4.74,0,8.58,3.42,8.58,7.65s-3.84,7.65-8.58,7.65-8.58-3.42-8.58-7.65S379.05,490.83,383.79,490.83ZM383,482.75c0-4.46,4.2-8.08,9.38-8.08s9.38,3.62,9.38,8.08-4.2,8.08-9.38,8.08S383,487.21,383,482.75Zm-11.68,51.42c-3.27,0-5.91-3.05-5.91-6.81s2.65-6.81,5.91-6.81,5.91,3.05,5.91,6.81S374.58,534.17,371.32,534.17ZM374.21,518a5.92,5.92,0,1,1,5.92-5.92A5.92,5.92,0,0,1,374.21,518Zm12.34,22.63a6.42,6.42,0,1,1,6.42-6.42A6.42,6.42,0,0,1,386.54,540.59Zm4.68-14c-4.54,0-8.22-4.07-8.22-9.09s3.68-9.09,8.22-9.09,8.22,4.07,8.22,9.09S395.76,526.6,391.22,526.6Zm13.7-18.18c-5.1,0-9.23-3.55-9.23-7.93s4.13-7.93,9.23-7.93,9.23,3.55,9.23,7.93S410,508.42,404.93,508.42Zm7.14-22.36a5.7,5.7,0,1,1,5.7-5.7A5.7,5.7,0,0,1,412.07,486.07Zm49.12-26.76s-9.52.08-15.87-5.12c0,0,7.21-5.19-6.92-21.35,0,0,6.92-5.55,8.37-14.43,0,0,7.79,8.37,17.6,9.81C464.36,428.22,466.38,455.19,461.18,459.3Zm29.57-57.7c-13.85,2.16-24.67-14.06-24.67-14.06,1.08,20.77,20.34,22.72,20.34,22.72-31.37,23.15-50.63-16.88-50.63-16.88,7.83,17.61,6,25.69,4.2,29a3.34,3.34,0,0,1-3.51,1.63c-40.79-7.23-43.1-20.88-43.1-20.88-2.6-14.28-7.14-15.58-7.14-15.58,3.68,3.25,4.54,21.64,4.54,21.64,0.87,6.06,13.2,23.37,13.2,23.37a3.62,3.62,0,0,1-.32-1.87,8.7,8.7,0,0,1,4.71-7.16c19.45-10.56,33.91,18.55,33.91,18.55-4.92-.25-7.78,1.26-9.31,2.57a7.1,7.1,0,0,1-4.6,1.76h-1.67c5.63,14.93-1.08,25.24-1.08,25.24-8.22-4.4-13.85-3.17-13.85-3.17-4.33.22-12.12-7.57-12.12-7.57a5.13,5.13,0,0,1-.82,3.38,4,4,0,0,1-3.15,1.94,10.27,10.27,0,0,0-8.58,5.42,122.18,122.18,0,0,1-2.4-28.53,16.69,16.69,0,0,1,3.3-9.58c4.27-5.55,9.11-3.32,11.77-1.32-3.63-4.29-8.13-13.74-8.13-13.74,0.43,3.89-3.46,10.6-3.46,10.6a23.47,23.47,0,0,1-9.7-10.67,29.68,29.68,0,0,1-1.5-21.13c7.68-25.85-.48-38.95-0.48-38.95-6.92,44.14-49.33,28.13-49.33,28.13,6.71,9.09,4.54,12.77,4.54,12.77,16,9.09,14.2,28.78,14.2,28.78-11.28-17.62-41-11.47-41-11.47l-1.51-2.6,5.55-5.05a17.76,17.76,0,0,1,7.5-4c9.64-2.51,5.12-7,5.12-7-24.52,10.2-24.38-7.26-22.91-16.2a54.42,54.42,0,0,0,.63-12.07l-1.73-29.07c-42.41-10.82-61.45-4.11-61.45-4.11-5-19.26,7.14-25.75,7.14-25.75,23.31-.79,30.08-6.49,30.08-6.49,5.41,8.22,22.72,5,22.72,5,18.18,6.92,38.52-3.68,38.52-3.68,21.64,13,28.13-1.3,28.13-1.3,8.22,1.73,13.63,30.94,13.63,30.94,2.81,34.84,6.92,32,6.92,32,12.33-1.73,1.95-59.29,1.95-59.29,13.2,13.42,23.37,12.77,23.37,12.77,1.72-9.31,16-10,16-10-5.78-5.62-20.62-6.47-27.89-6.54a27.45,27.45,0,0,1-12.54-3.05c-8.47-4.45-8.36-10.33-7.22-13.94a4.22,4.22,0,0,1,4.89-2.82c12.06,2.56,11,12.5,11,12.5,11-14.28-16.44-19.69-16.44-19.69-3.68,7.57-9.3,3.25-9.3,3.25,18.61,30.51,13,56.91,13,56.91C375.21,304.24,365.91,298,365.91,298c0.43-15.8-12.77-24.45-12.77-24.45l-11.9,3c7.57,1.95,16.23,14.06,16.23,14.06,10.39,22.07-15.8,9.52-15.8,9.52,9.52-14.71-8-22.94-8-22.94,7.14-7.79,7.79-13.85,7.79-13.85,12.33,10.82,48,13.2,48,13.2C380,275,380,269.61,380,269.61c-26.18.65-23.37-21-23.37-21l-8-12.12-10.82,15.36c-4.87,3.52-4,6.44-2.65,8.14a6.43,6.43,0,0,1,1.28,5.53c-1.68,6.84-7.08,12.08-7.08,12.08,11,4.33,11,13.63,11,13.63,1.95,8-15.36,11.68-15.36,11.68,3.46-3-.22-10.17-0.22-10.17-5.84-5.84-7.14-16.23-7.14-16.23-2.1,1.94.27,12.85,1.6,18.22a9.18,9.18,0,0,1-2,8.43c-5.68,6.16-15.6-.9-15.6-0.9,7.14-5.84,8-25.32,8-25.32-9.74,0-9.74,11.68-9.74,11.68-3.46,22.29-14.71,9.74-14.71,9.74-13.2-24.88,28.13-26.18,28.13-26.18-1.16-6.42-6.66-8.42-10.94-9a37,37,0,0,1-12.46-4.08c-48.24-25.58-68.13-11.6-68.13-11.6,35.92-5,60.8,13.63,60.8,13.63-11-3.46-27,9.52-27,9.52-24.45,8.66-40.46.22-40.46,0.22,26-2.6,19.91-8,19.91-8-20.34,1.95-28.13-4.54-28.13-4.54-11.68-9.3-21.42-8-21.42-8C184.58,243.87,230,238,230,238c21-11.68,43.92,6.71,43.92,6.71,21,16.23,34.19,13.42,34.19,13.42,15.15-5.84,19.26,14.93,19.26,14.93,8-9.52,2.16-22.72,2.16-22.72-13.85,7.36-20.77-5.41-20.77-5.41-7.36-18,7.14-19.91,7.14-19.91,18.18,0.22,15.15,17.74,15.15,17.74,1.95-8.22,10.6-10.39,10.6-10.39,2.81-3.25-5.84-7.79-5.84-7.79-20.34-6.06-19.91-17.09-19.91-17.09l10-1.73c14.71-1.95,14.71,9.74,14.71,9.74h32.24l0.22,10.6-11.9-.22c-7.36-7.36-17.31-7.14-17.31-7.14C349.46,227,360.5,230,360.5,230c24.45,0.65,32.67,18,32.67,18-15.15,1.08-26.83-8-26.83-8-2.81-7.14-10-5.41-10-5.41C352.49,246.9,394,251,394,251a35.48,35.48,0,0,1-26.83,2.6c19.47,18.82,37.65-5.41,37.65-5.41,8.44-.65,19.69,5.41,19.69,5.41a26.14,26.14,0,0,1-16.66,23.15c-5.19-8.44-21.64-8-21.64-8l18,8c1.95,7.14-.87,11.9,0,10.82s6.06-2.16,6.06-2.16c2.38,6.49-2.81,12.55-2.81,12.55,40.46,5.41,50.2,23.37,50.2,23.37-40-7.57-52.36,10.39-52.36,10.39l-8.66-10.39c3.89,6.71,3.46,51.71,3.46,51.71,30.94-22.07,69,4.11,69,4.11,17.09,10.6,25.53,4.67,25.53,4.67-5.82,2-29.86-12.89-29.86-12.89-30.94-24.88-55.61-8.87-55.61-8.87,19.26-23.15,49.55-13.63,49.55-13.63-1.08,2.81-12.33,2.81-12.33,2.81,6.49,4.33,23.59,1.3,23.59,1.3,21.21,7.36,33.32,34.84,33.32,34.84C499.41,397.71,490.76,401.61,490.76,401.61Zm-239.6-110.5s3.17-27.34,48.47-24.16c0,0-17.62,7.34-22.43,18a10.49,10.49,0,0,1-6.53,5.9c-3.25.93-6.68,0-6.52-8.3C264.14,282.53,254.33,293.35,251.15,291.11Z" transform="translate(-96.23 -192.31)"/><path class="cls-4" d="M418.13,461.9s-7.14-23.37-12.77-21.71C405.36,440.19,410.62,456.85,418.13,461.9Z" transform="translate(-96.23 -192.31)"/><path class="cls-5" d="M372.4,340.37c-33.32-11-51.71,1-51.71,1-13.74,11.58,4.76,15,4.76,15,15.9,12.23,26.61,2.92,26.61,2.92-13.28,4.37-19.23.34-21.51-2.23a2.48,2.48,0,0,1,.09-3.34c9.31-9.71,25.75,3.09,25.75,3.09,8-.76,10.49-6.27,10.49-6.27C329.56,341.89,372.4,340.37,372.4,340.37Zm-18,11a0.25,0.25,0,0,1-.33.3,88.18,88.18,0,0,0-17.29-5.11,0.19,0.19,0,0,1,0-.37C340.27,345.54,352,344,354.43,351.37Z" transform="translate(-96.23 -192.31)"/><path class="cls-6" d="M351,362.83c-1.62.81-10.7,4.85-23.15-.06,0,0-.06,0,0,0,1.58,1.21,15.29,11.18,23.26.13A0.07,0.07,0,0,0,351,362.83Z" transform="translate(-96.23 -192.31)"/><g class="cls-7"><rect class="cls-8" x="103.57" y="385.36" width="206.25" height="70"/></g></svg>