<svg id="Degradado_Negro" data-name="Degradado Negro" xmlns="http://www.w3.org/2000/svg" xmlns:xlink="http://www.w3.org/1999/xlink" viewBox="0 0 480.71 521.31"><defs><style>.cls-1{font-size:83px;font-family:Century Gothic;font-weight:700;letter-spacing:20px;}.cls-1,.cls-2,.cls-3{fill:none;}.cls-2,.cls-3{stroke-miterlimit:10;}.cls-2{stroke-width:2px;stroke:url(#Degradado_sin_nombre_36);}.cls-3{stroke:#b688ff;}.cls-4{fill:url(#Degradado_sin_nombre_36-2);}.cls-5{fill:url(#Degradado_sin_nombre_36-3);}.cls-6{fill:url(#Degradado_sin_nombre_36-4);}.cls-7{fill:url(#Degradado_sin_nombre_36-5);}.cls-8{fill:url(#Degradado_sin_nombre_36-6);}.cls-9{fill:url(#Degradado_sin_nombre_36-7);}.cls-10{fill:url(#Degradado_sin_nombre_36-8);}.cls-11{fill:url(#Degradado_sin_nombre_36-9);}.cls-12{fill:url(#Degradado_sin_nombre_36-10);}.cls-13{fill:url(#Degradado_sin_nombre_36-11);}.cls-14{fill:url(#Degradado_sin_nombre_36-12);}.cls-15{fill:url(#Degradado_sin_nombre_36-13);}.cls-16{fill:url(#Degradado_sin_nombre_36-14);}.cls-17{fill:url(#Degradado_sin_nombre_36-15);}.cls-18{fill:url(#Degradado_sin_nombre_36-16);}.cls-19{fill:url(#Degradado_sin_nombre_36-17);}.cls-20{fill:url(#Degradado_sin_nombre_36-18);}.cls-21{fill:url(#Degradado_sin_nombre_36-19);}.cls-22{fill:url(#Degradado_sin_nombre_36-20);}.cls-23{fill:url(#Degradado_sin_nombre_36-21);}.cls-24{fill:url(#Degradado_sin_nombre_36-22);}.cls-25{fill:url(#Degradado_sin_nombre_36-23);}.cls-26{fill:url(#Degradado_sin_nombre_36-24);}.cls-27{fill:url(#Degradado_sin_nombre_36-25);}.cls-28{fill:url(#Degradado_sin_nombre_36-26);}.cls-29{fill:url(#Degradado_sin_nombre_36-27);}.cls-30{fill:url(#Degradado_sin_nombre_36-28);}.cls-31{fill:url(#Degradado_sin_nombre_36-29);}.cls-32{fill:url(#Degradado_sin_nombre_36-30);}.cls-33{fill:url(#Degradado_sin_nombre_36-31);}.cls-34{fill:url(#Degradado_sin_nombre_36-32);}.cls-35{fill:url(#Degradado_sin_nombre_36-33);}.cls-36{fill:url(#Degradado_sin_nombre_36-34);}.cls-37{fill:url(#Degradado_sin_nombre_36-35);}.cls-38{fill:url(#Degradado_sin_nombre_36-36);}.cls-39{fill:url(#Degradado_sin_nombre_36-37);}.cls-40{fill:url(#Degradado_sin_nombre_36-38);}.cls-41{fill:url(#Degradado_sin_nombre_36-39);}.cls-42{fill:url(#Degradado_sin_nombre_36-40);}.cls-43{fill:url(#Degradado_sin_nombre_36-41);}.cls-44{fill:url(#Degradado_sin_nombre_36-42);}.cls-45{fill:url(#Degradado_sin_nombre_36-43);}.cls-46{fill:url(#Degradado_sin_nombre_36-44);}.cls-47{fill:url(#Degradado_sin_nombre_36-45);}.cls-48{fill:url(#Degradado_sin_nombre_36-46);}.cls-49{fill:url(#Degradado_sin_nombre_36-47);}.cls-50{fill:url(#Degradado_sin_nombre_36-48);}.cls-51{fill:url(#Degradado_sin_nombre_36-49);}.cls-52{fill:url(#Degradado_sin_nombre_36-50);}.cls-53{fill:url(#Degradado_sin_nombre_36-51);}.cls-54{fill:url(#Degradado_sin_nombre_36-52);}.cls-55{fill:url(#Degradado_sin_nombre_36-53);}.cls-56{fill:url(#Degradado_sin_nombre_36-54);}.cls-57{fill:url(#Degradado_sin_nombre_36-55);}.cls-58{clip-path:url(#clip-path);}.cls-59{fill:url(#Degradado_sin_nombre_36-56);}</style><linearGradient id="Degradado_sin_nombre_36" x1="56.29" y1="407.98" x2="537" y2="407.98" gradientUnits="userSpaceOnUse"><stop offset="0" stop-color="#aa851d"/><stop offset="0.1" stop-color="#b18b25"/><stop offset="0.49" stop-color="#cca645"/><stop offset="1" stop-color="#e1b95d"/></linearGradient><linearGradient id="Degradado_sin_nombre_36-2" x1="198.15" y1="580.48" x2="234.55" y2="580.48" xlink:href="#Degradado_sin_nombre_36"/><linearGradient id="Degradado_sin_nombre_36-3" x1="452.65" y1="473.88" x2="483.1" y2="473.88" xlink:href="#Degradado_sin_nombre_36"/><linearGradient id="Degradado_sin_nombre_36-4" x1="359.36" y1="333.82" x2="372.52" y2="333.82" xlink:href="#Degradado_sin_nombre_36"/><linearGradient id="Degradado_sin_nombre_36-5" x1="329.04" y1="395.98" x2="343.86" y2="395.98" xlink:href="#Degradado_sin_nombre_36"/><linearGradient id="Degradado_sin_nombre_36-6" x1="312.02" y1="388.11" x2="325.69" y2="388.11" xlink:href="#Degradado_sin_nombre_36"/><linearGradient id="Degradado_sin_nombre_36-7" x1="100.1" y1="526.2" x2="161.15" y2="526.2" xlink:href="#Degradado_sin_nombre_36"/><linearGradient id="Degradado_sin_nombre_36-8" x1="135.87" y1="488.34" x2="200.98" y2="488.34" xlink:href="#Degradado_sin_nombre_36"/><linearGradient id="Degradado_sin_nombre_36-9" x1="135.32" y1="490.66" x2="135.87" y2="490.66" xlink:href="#Degradado_sin_nombre_36"/><linearGradient id="Degradado_sin_nombre_36-10" x1="149.65" y1="530.91" x2="187.22" y2="530.91" xlink:href="#Degradado_sin_nombre_36"/><linearGradient id="Degradado_sin_nombre_36-11" x1="313.21" y1="550.11" x2="379.65" y2="550.11" xlink:href="#Degradado_sin_nombre_36"/><linearGradient id="Degradado_sin_nombre_36-12" x1="345.81" y1="505.47" x2="383.51" y2="505.47" xlink:href="#Degradado_sin_nombre_36"/><linearGradient id="Degradado_sin_nombre_36-13" x1="249.98" y1="441.4" x2="272.05" y2="441.4" xlink:href="#Degradado_sin_nombre_36"/><linearGradient id="Degradado_sin_nombre_36-14" x1="272.05" y1="460.29" x2="329.4" y2="460.29" xlink:href="#Degradado_sin_nombre_36"/><linearGradient id="Degradado_sin_nombre_36-15" x1="262.98" y1="474.67" x2="331.65" y2="474.67" xlink:href="#Degradado_sin_nombre_36"/><linearGradient id="Degradado_sin_nombre_36-16" x1="332.36" y1="336.57" x2="354.02" y2="336.57" xlink:href="#Degradado_sin_nombre_36"/><linearGradient id="Degradado_sin_nombre_36-17" x1="347.02" y1="357.07" x2="368.36" y2="357.07" xlink:href="#Degradado_sin_nombre_36"/><linearGradient id="Degradado_sin_nombre_36-18" x1="323.36" y1="354.74" x2="343.19" y2="354.74" xlink:href="#Degradado_sin_nombre_36"/><linearGradient id="Degradado_sin_nombre_36-19" x1="315.36" y1="370.41" x2="329.04" y2="370.41" xlink:href="#Degradado_sin_nombre_36"/><linearGradient id="Degradado_sin_nombre_36-20" x1="332.36" y1="376.74" x2="351.36" y2="376.74" xlink:href="#Degradado_sin_nombre_36"/><linearGradient id="Degradado_sin_nombre_36-21" x1="413.32" y1="361.52" x2="493.32" y2="361.52" xlink:href="#Degradado_sin_nombre_36"/><linearGradient id="Degradado_sin_nombre_36-22" x1="83.15" y1="432.76" x2="115.91" y2="432.76" xlink:href="#Degradado_sin_nombre_36"/><linearGradient id="Degradado_sin_nombre_36-23" x1="114.39" y1="456.84" x2="153.65" y2="456.84" xlink:href="#Degradado_sin_nombre_36"/><linearGradient id="Degradado_sin_nombre_36-24" x1="74.48" y1="475.98" x2="124.98" y2="475.98" xlink:href="#Degradado_sin_nombre_36"/><linearGradient id="Degradado_sin_nombre_36-25" x1="179.15" y1="429.42" x2="210.84" y2="429.42" xlink:href="#Degradado_sin_nombre_36"/><linearGradient id="Degradado_sin_nombre_36-26" x1="180.32" y1="453.37" x2="214.15" y2="453.37" xlink:href="#Degradado_sin_nombre_36"/><linearGradient id="Degradado_sin_nombre_36-27" x1="186.15" y1="493.77" x2="232.84" y2="493.77" xlink:href="#Degradado_sin_nombre_36"/><linearGradient id="Degradado_sin_nombre_36-28" x1="76.36" y1="222.77" x2="90.69" y2="222.77" xlink:href="#Degradado_sin_nombre_36"/><linearGradient id="Degradado_sin_nombre_36-29" x1="139.82" y1="398.17" x2="149.65" y2="398.17" gradientTransform="translate(323.94 14.28) rotate(45)" xlink:href="#Degradado_sin_nombre_36"/><linearGradient id="Degradado_sin_nombre_36-30" x1="112.14" y1="225" x2="130.92" y2="225" xlink:href="#Degradado_sin_nombre_36"/><linearGradient id="Degradado_sin_nombre_36-31" x1="136.02" y1="221.99" x2="149.86" y2="221.99" xlink:href="#Degradado_sin_nombre_36"/><linearGradient id="Degradado_sin_nombre_36-32" x1="107.36" y1="247.9" x2="124.02" y2="247.9" xlink:href="#Degradado_sin_nombre_36"/><linearGradient id="Degradado_sin_nombre_36-33" x1="95.69" y1="211.79" x2="112.14" y2="211.79" xlink:href="#Degradado_sin_nombre_36"/><linearGradient id="Degradado_sin_nombre_36-34" x1="97.87" y1="195.57" x2="112.14" y2="195.57" xlink:href="#Degradado_sin_nombre_36"/><linearGradient id="Degradado_sin_nombre_36-35" x1="95.69" y1="230.04" x2="111.86" y2="230.04" xlink:href="#Degradado_sin_nombre_36"/><linearGradient id="Degradado_sin_nombre_36-36" x1="90.69" y1="273.94" x2="104.09" y2="273.94" xlink:href="#Degradado_sin_nombre_36"/><linearGradient id="Degradado_sin_nombre_36-37" x1="99.36" y1="262.57" x2="114.02" y2="262.57" xlink:href="#Degradado_sin_nombre_36"/><linearGradient id="Degradado_sin_nombre_36-38" x1="127.02" y1="240.95" x2="140.15" y2="240.95" xlink:href="#Degradado_sin_nombre_36"/><linearGradient id="Degradado_sin_nombre_36-39" x1="115.69" y1="264.24" x2="127.02" y2="264.24" xlink:href="#Degradado_sin_nombre_36"/><linearGradient id="Degradado_sin_nombre_36-40" x1="105.01" y1="277.72" x2="115.69" y2="277.72" xlink:href="#Degradado_sin_nombre_36"/><linearGradient id="Degradado_sin_nombre_36-41" x1="97.87" y1="289.64" x2="111.03" y2="289.64" xlink:href="#Degradado_sin_nombre_36"/><linearGradient id="Degradado_sin_nombre_36-42" x1="88.44" y1="247.18" x2="103.77" y2="247.18" xlink:href="#Degradado_sin_nombre_36"/><linearGradient id="Degradado_sin_nombre_36-43" x1="77.73" y1="238.26" x2="90.69" y2="238.26" xlink:href="#Degradado_sin_nombre_36"/><linearGradient id="Degradado_sin_nombre_36-44" x1="176.98" y1="528.42" x2="253.86" y2="528.42" xlink:href="#Degradado_sin_nombre_36"/><linearGradient id="Degradado_sin_nombre_36-45" x1="242.64" y1="598.69" x2="315.65" y2="598.69" xlink:href="#Degradado_sin_nombre_36"/><linearGradient id="Degradado_sin_nombre_36-46" x1="296.61" y1="545.67" x2="314.11" y2="545.67" xlink:href="#Degradado_sin_nombre_36"/><linearGradient id="Degradado_sin_nombre_36-47" x1="239.1" y1="543.74" x2="290.43" y2="543.74" xlink:href="#Degradado_sin_nombre_36"/><linearGradient id="Degradado_sin_nombre_36-48" x1="216.35" y1="387.67" x2="285.65" y2="387.67" xlink:href="#Degradado_sin_nombre_36"/><linearGradient id="Degradado_sin_nombre_36-49" x1="235.33" y1="367.23" x2="255.15" y2="367.23" xlink:href="#Degradado_sin_nombre_36"/><linearGradient id="Degradado_sin_nombre_36-50" x1="71.98" y1="398.11" x2="73.68" y2="398.11" xlink:href="#Degradado_sin_nombre_36"/><linearGradient id="Degradado_sin_nombre_36-51" x1="69.57" y1="338.11" x2="231.43" y2="338.11" xlink:href="#Degradado_sin_nombre_36"/><linearGradient id="Degradado_sin_nombre_36-52" x1="236.32" y1="289.25" x2="292.32" y2="289.25" xlink:href="#Degradado_sin_nombre_36"/><linearGradient id="Degradado_sin_nombre_36-53" x1="160.38" y1="358.05" x2="527.65" y2="358.05" xlink:href="#Degradado_sin_nombre_36"/><linearGradient id="Degradado_sin_nombre_36-54" x1="244.82" y1="231.1" x2="309.29" y2="231.1" xlink:href="#Degradado_sin_nombre_36"/><linearGradient id="Degradado_sin_nombre_36-55" x1="202.57" y1="227.43" x2="253.44" y2="227.43" xlink:href="#Degradado_sin_nombre_36"/><clipPath id="clip-path" transform="translate(-56.29 -188.02)"><text class="cls-1" transform="translate(183.32 703.77)">JAC</text></clipPath><linearGradient id="Degradado_sin_nombre_36-56" x1="127.02" y1="486.31" x2="333.27" y2="486.31" xlink:href="#Degradado_sin_nombre_36"/></defs><title>LogoBlack</title><path class="cls-2" d="M131.32,267.26s-25.33,27-19,61c0,0-21.33,14.67-23.33,20.67l5.33,2.67s-29,24.67-37,43.67c0,0,2,17.33,21,28,0,0-2.33,31.67,2,33,0,0,.33,10-14,18.67,0,0-5.67,11.33,28,21,0,0-14.67,27.67,22.67,56.33,0,0,14.33,32.67,55,18.33,0,0,22.67,40.67,62.67,28.33,0,0,32.33,58.33,86.67,6.67,0,0,47,23,86.26-18.68a13,13,0,0,0,3.18-6l1.8-7.74a7.1,7.1,0,0,1,3.42-4.53c5.53-3.17,17.52-13.27,14.68-40.42,0,0,6.33,4.33,13,2.33,0,0,5.67-.42,9-33.09l4.33-.91s17.67,12.67,25,10c0,0,6.67,4,12-43.33,0,0,35.67-16.33,42-49,0,0-5.67-27.67-39.67-53.67l1-6.67-11-7.33,1-10s-11.33-24-52.67-34.67L432,283.59s13.67-17.33,11-31h-9.67s-1.67-5-22.33-5.67c0,0-2.33-11.33-20.33-19l-2.67-3,1-23-36.67,4s-9-18.33-30-10c0,0,.67-11.67-33.67-4.67,0,0-54.33-9-57,17.33,0,0-40.67,19.67-38.67,27.67,0,0-27.67,2-40.33,11.33,0,0,1.51,13.57,3.83,18.67,0.64,1.4-.42,3-1.24,4.34-2.36,3.75-7.61,9.31-15.26,1.66Z" transform="translate(-56.29 -188.02)"/><path class="cls-3" d="M74.48,481.59" transform="translate(-56.29 -188.02)"/><path class="cls-4" d="M198.15,584.59c42.83,25.17,36-16.33,36-16.33C221.65,589.09,198.15,584.59,198.15,584.59Z" transform="translate(-56.29 -188.02)"/><path class="cls-5" d="M462.32,450.26c-1.67,10.25-9.67,16.67-9.67,16.67,16.33,18.67,8,24.67,8,24.67,7.33,6,18.33,5.91,18.33,5.91,6-4.76,3.67-35.91,3.67-35.91C471.32,459.92,462.32,450.26,462.32,450.26Z" transform="translate(-56.29 -188.02)"/><circle class="cls-6" cx="365.94" cy="333.82" r="6.58"/><circle class="cls-7" cx="336.45" cy="395.98" r="7.41"/><ellipse class="cls-8" cx="318.86" cy="388.11" rx="6.83" ry="7.87"/><path class="cls-9" d="M142.36,551.66a13.39,13.39,0,0,1,.36-10.39c9.11-20.58,2.76-32.51,2.76-32.51-15-30.83-45.38-19.67-45.38-19.67,0.74,3.4,6.88,7,6.88,7-12.33,6.67-4.33,23.33-4.33,23.33,6-14.33,22.33-8.17,22.33-8.17-14.67-.83-17,11.5-17,11.5-3.46,11.94,6.41,16.83,6.41,16.83,16,7.05,15.26-9,15.26-9-10.83,2.17-11.17-5.67-11.17-5.67,2.67-10.5,13-3.17,13-3.17-0.83,6.17,4.33,5.17,4.33,5.17a19.52,19.52,0,0,1-1.8,14.17c-8.13,14.83,4.8,22.17,4.8,22.17,14.17,6,22.33-3.33,22.33-3.33C149.08,561.53,144.26,556.41,142.36,551.66Z" transform="translate(-56.29 -188.02)"/><path class="cls-10" d="M180,502.26s17.83-13,21-22.5c0,0-7.33,4.83-15.67,1.83l-0.17-7.17a45,45,0,0,1-8.67,8.25,50.62,50.62,0,0,1-34.63,9.48c-2.55-.22-4.88-0.61-6-1.27,1.77,1.5,7.43,6.32,9.95,8.7C145.82,499.59,159.32,492.09,180,502.26Z" transform="translate(-56.29 -188.02)"/><path class="cls-11" d="M135.87,490.89l-0.55-.47A1.67,1.67,0,0,0,135.87,490.89Z" transform="translate(-56.29 -188.02)"/><path class="cls-12" d="M179.15,546.76c13.67-13.33,5.83-26.5,5.83-26.5-11.67-22-33.17-12-33.17-12l1.5,14.67a21.31,21.31,0,0,1,7.6-1.94,14.63,14.63,0,0,1,13.21,6.54c2.94,4.44,3.7,9.84-1.31,16.07-9.8,12.2-17.17,3.67-17.17,3.67-2.5-2-.33-10.5,4.33-10.33,5.32,0.19,3,4.67,3,4.67-3,3-4.17-2.5-4.17-2.5-2.33.83-2,4.67-2,4.67,3.33,9,11.33,1.67,11.33,1.67,4.58-4.25,4-7.88,2.35-10.45a9.92,9.92,0,0,0-8.8-4.25c-7.57.35-10.54,4.56-11.62,8.69A13.25,13.25,0,0,0,155.75,554C166.59,560.73,179.15,546.76,179.15,546.76Z" transform="translate(-56.29 -188.02)"/><path class="cls-13" d="M361.9,576.84s4.5,0,5-2.75c0,0-6.12-15-13.28-29.64a127.51,127.51,0,0,0-26.31-36.05c-6.42-6.16-12.81-11.94-13.2-10.9a6.5,6.5,0,0,0,0,6.59s11.54,22.25,7.29,42.75c0,0-16.5,54.75,31.25,56,0,0-26-2.25-25.75-48.5,0,0,5.78-.86,12.2,25a27.89,27.89,0,0,0,12.71,17.41c7,4.1,16.72,5.75,27.84-4C379.65,592.69,364.15,589.34,361.9,576.84Z" transform="translate(-56.29 -188.02)"/><path class="cls-14" d="M361.9,537.54a44.19,44.19,0,0,0,13,5.05s-12.5-8.19,1.25-25.47c0,0,26.75-32.78-21.75-48.78,0,0,7.69,15.45,5.15,30.84a38.49,38.49,0,0,0-.48,10c0.43,4.46,1.64,9.78,4.87,11.68,0,0-13.14-2.35-10.3-27.07,0,0,2.75-17.43-5-21.18,0,0,5.17,6.89-.91,24.52C342.51,512.29,348.12,529.31,361.9,537.54Z" transform="translate(-56.29 -188.02)"/><path class="cls-15" d="M261.32,435.54C249.65,439.15,250,453.37,250,453.37c0-2.89,6-5.11,6-5.11,18-1.67,16-8.33,16-8.33-8.67-3-7.22-10.5-7.22-10.5C263.21,430.59,261.32,435.54,261.32,435.54Z" transform="translate(-56.29 -188.02)"/><path class="cls-16" d="M328,457.3c-12.86.88-20.2-.21-23.81-1.11a8.77,8.77,0,0,0-5.41.35,9.88,9.88,0,0,1-7.83.26,10.12,10.12,0,0,0-6.44-.52L272,459.34c3.29-.15,12.21,2.19,18.67,4a33.11,33.11,0,0,0,15.27.69C337.77,458,328,457.3,328,457.3Z" transform="translate(-56.29 -188.02)"/><path class="cls-17" d="M322,474.42s6.33-10.17,9.67-11.83c0,0-9.63,3.15-15.78,5.65a26.72,26.72,0,0,1-8.37,1.95,31.33,31.33,0,0,0-10.19,2.67,6.34,6.34,0,0,1-6-.48c-4-2.65-12.8-7.08-28.35-8.45,0,0,8.13,7,9.07,10.5,0,0,5.33,15.74,19.24,11.64a34.62,34.62,0,0,1,9.78-1.48,8,8,0,0,1,2,.25C305.88,485.58,315.24,486.93,322,474.42Z" transform="translate(-56.29 -188.02)"/><ellipse class="cls-18" cx="343.19" cy="336.57" rx="10.83" ry="9.33"/><ellipse class="cls-19" cx="357.69" cy="357.07" rx="10.67" ry="9.17"/><ellipse class="cls-20" cx="333.27" cy="354.74" rx="9.92" ry="8.83"/><circle class="cls-21" cx="322.2" cy="370.41" r="6.84"/><ellipse class="cls-22" cx="341.86" cy="376.74" rx="9.5" ry="10.5"/><path class="cls-23" d="M413.32,378.76c31.83-29.5,80-15,80-15C420.65,312.42,413.32,378.76,413.32,378.76Z" transform="translate(-56.29 -188.02)"/><path class="cls-24" d="M105.9,456.59c10.75-14.25,10-37.5,10-37.5-2.87-.71-6.5,2.38-6.5,2.38-4.5-3.5-4-11.48-4-11.48,0.63-2.23,4-3.39,4-3.39C93.9,403,88.68,424.34,88.68,424.34a5.7,5.7,0,0,1-3.28-6c-2.44-.31-2.25,4-2.25,4-0.25,38,20.42,37,20.42,37-8.5-12.42-5.54-30-5.54-30q0,0.37,0,.75C98,441.29,105.9,456.59,105.9,456.59Z" transform="translate(-56.29 -188.02)"/><path class="cls-25" d="M149.15,488.34c-18.79-12.14-23-28.41-24-34.9a0.19,0.19,0,0,1,.37-0.06,48.39,48.39,0,0,0,28.1,32.47,55.21,55.21,0,0,1-5.06-5.81A38.32,38.32,0,0,1,141,456.95V437.47c-4.87-1.37-9.37,5.88-9.37,5.88l-1.5-18c-16.75,7.25-15.75,30.75-15.75,30.75C118.15,483.09,149.15,488.34,149.15,488.34Z" transform="translate(-56.29 -188.02)"/><path class="cls-26" d="M122.65,486.42c-8.5-7.67-29.17-10.83-29.17-10.83,11.83-3.17,31.5,6.33,31.5,6.33-30.67-36.17-50.5-1.17-50.5-1.17C80.32,486.59,122.65,486.42,122.65,486.42Z" transform="translate(-56.29 -188.02)"/><path class="cls-27" d="M179.15,462.59c36.12-21.25,31.5-66.33,31.5-66.33C202.65,435.59,179.15,462.59,179.15,462.59Z" transform="translate(-56.29 -188.02)"/><path class="cls-28" d="M210,430.76a10.53,10.53,0,0,0-3.68,6.89,16.23,16.23,0,0,1-3,7.53,46.4,46.4,0,0,1-8.4,8.81c-9.6,7.64-14.57,18.76-14.57,18.76,3.83-.5,13.83-10.17,13.83-10.17-1.5,1.83-1.83,13.39-1.83,13.39,4.33-.27,9.83-6.56,9.83-6.56l1.83,5c3.06-2.66,4-10,4.25-12.85a20.08,20.08,0,0,0,0-2c-0.09-6.84,5.88-13.27,5.88-13.27Z" transform="translate(-56.29 -188.02)"/><path class="cls-29" d="M226.82,502.26s9-12.5,5-31.83c0,0-11,27-24,33.17,0,0,16.17-16,17.67-33.17,0,0-29.31,22.17-39.33,44.5C186.15,514.92,211.32,524.92,226.82,502.26Z" transform="translate(-56.29 -188.02)"/><circle class="cls-30" cx="83.52" cy="222.77" r="7.17"/><circle class="cls-31" cx="144.73" cy="398.17" r="4.92" transform="translate(-295.45 30.94) rotate(-45)"/><circle class="cls-32" cx="121.53" cy="225" r="9.39"/><circle class="cls-33" cx="142.94" cy="221.99" r="6.92"/><circle class="cls-34" cx="115.69" cy="247.9" r="8.33"/><circle class="cls-35" cx="103.91" cy="211.79" r="8.22"/><circle class="cls-36" cx="105.01" cy="195.57" r="7.13"/><circle class="cls-37" cx="103.77" cy="230.04" r="8.08"/><circle class="cls-38" cx="97.39" cy="273.94" r="6.7"/><ellipse class="cls-39" cx="106.69" cy="262.57" rx="7.33" ry="6.33"/><circle class="cls-40" cx="133.59" cy="240.95" r="6.56"/><circle class="cls-41" cx="121.36" cy="264.24" r="5.67"/><circle class="cls-42" cx="110.35" cy="277.72" r="5.34"/><circle class="cls-43" cx="104.45" cy="289.64" r="6.58"/><ellipse class="cls-44" cx="96.11" cy="247.18" rx="7.67" ry="9.05"/><circle class="cls-45" cx="84.21" cy="238.26" r="6.48"/><path class="cls-46" d="M247.65,478.76c-10,22.67-26.5,41.17-26.5,41.17-15.06,13-20.06,19.24-21.64,22.18A2,2,0,0,0,201,545a12.75,12.75,0,0,0,8.81-1.57L200,551.23a29.06,29.06,0,0,1-17.37,6.24l-5.6.12c6.83,20.5,24.67,20.5,24.67,20.5,26-.5,32.9-27.17,32.9-27.17l4.1,4.9c13.83-21.1,14.33-38.7,14.33-38.7C256.65,481.32,247.65,478.76,247.65,478.76ZM226,543.92s-12.29,8.33-10.56,14l-9.27,5.67s30.33-48.83,39.67-73.83C245.82,489.76,232.48,528.76,226,543.92Z" transform="translate(-56.29 -188.02)"/><path class="cls-47" d="M295.15,579.59s-29.67,39-52.5,13.1c0,0-1.67,28.56,37.67,24.73,0,0,30.33-2.33,35.33-20.5C315.65,596.92,295.48,582.09,295.15,579.59Z" transform="translate(-56.29 -188.02)"/><path class="cls-48" d="M305,511.76c1.72,4.84-.65,12.25-2.55,16.89a32.52,32.52,0,0,1-3.22,5.73c-3.09,4.61-2.56,13.38-2.56,13.38,3.83,25.17,16.5,31.83,16.5,31.83-6-10.83.17-36.67,0.17-36.67C317.32,520.42,305,511.76,305,511.76Z" transform="translate(-56.29 -188.02)"/><path class="cls-49" d="M260.15,589.84s28.25,3.36,30-24.57c0,0,2.5-22.43-7.5-31.18,0,0,3.75,47.5-24,39.5,0,0,38-3.25,10.75-75.75,0,0-12.76-5.41-4.5,27,0,0,9.37,37.87-10.55,40.44a3.86,3.86,0,0,1-4.17-3.29c-0.28-1.42-1.66-2.4-6-.65C244.15,561.34,225.4,576.59,260.15,589.84Z" transform="translate(-56.29 -188.02)"/><path class="cls-50" d="M241.81,360a29.61,29.61,0,0,0-24.5-.6s-10.33,56.83,36.5,58.83c0,0,22.33,1.17,29.17-20.5l2.67-24.5L274.76,381a2.4,2.4,0,0,1-2.36.23L269,379.69a2,2,0,0,1-1.22-1.72c-0.08-1.45-1-4.08-5.94-6.55a25.6,25.6,0,0,0-17.88-1.7,24.46,24.46,0,0,0-7.71,3.31,1.1,1.1,0,0,0-.19,1.63c1.3,1.44,5.56,4.09,19.42,6.27,0,0-8.33,1-11.17-.33,0,0,4,4,20,2.67,0,0-2.82,4.34-13.37,2.78a26.47,26.47,0,0,1-12.19-5.24c-0.71-.55-1.4-1.11-2-1.65a14.36,14.36,0,0,0-6-3.27l-10.91-2.79s-1-5.83,5.5-6.83c0,0,12.08-.14,16.77-4.29A1.19,1.19,0,0,0,241.81,360Z" transform="translate(-56.29 -188.02)"/><path class="cls-51" d="M235.41,369.66l1.36,0.3c0.66,0.29,2.1-.24,2.73-0.6l6-2.12a8.91,8.91,0,0,1,2.42-.64h7.21v-0.93a1.24,1.24,0,0,0-1.24-1.24h-7.76a4.5,4.5,0,0,0-2.45.73l-7,3C236.34,368.43,235,369.47,235.41,369.66Z" transform="translate(-56.29 -188.02)"/><path class="cls-52" d="M73.68,398.46l-1.7-.71A17.89,17.89,0,0,0,73.68,398.46Z" transform="translate(-56.29 -188.02)"/><path class="cls-53" d="M143.48,386.59c3.5-1.5,47.33-49,47.33-49,4,4.17,3,18.83,3,18.83-20.17-8.5-24.83,24.17-24.83,24.17,0,1.17,10.67-2.17,10.67-2.17-1.67,8.67,3.67,21.33,3.67,21.33a27.7,27.7,0,0,0,17.83-12.67c3.83,6.17,7.33,6.67,7.33,6.67,6-3,3.5-24.83,3.5-24.83-1.17-6.83-4.5-8-7.54-7.37a8.82,8.82,0,0,0-6.62,6.22,56.66,56.66,0,0,1-9,16.82c16.17-29,3.5-47.83,3.5-47.83l14.83-7.17,24-21.67c1.17-2.67-1.67-3.83-1.67-3.83-10.19-3-17.59,4.18-21.4,9.33a25.68,25.68,0,0,0-3.6,6.81c-2.55,7.29-5.5,6.86-5.5,6.86-1.83-4.5.17-12.33,0.17-12.33,2-20.17,23.5-18.5,23.5-18.5v-6c-1-2.17-13.5,2.34-13.5,2.34h-7c-7.83-6.5-13.67-5.5-13.67-5.5-21.33,4.17-23.67,0-23.67,0,6.67-3.83,4.5-8.67,4.5-8.67-6.17-8.17-11.5-2-11.5-2-5.67,10.07,2.16,14,7.48,15.38a15.57,15.57,0,0,0,7,.2c20.75-4,21.51,2.41,21.51,2.41-1.17,7.17-14.17,14.17-14.17,14.17-42.5,17.67-46.83-29.17-44.83-23.5,0.12,0.35.27,0.7,0.42,1.06,2.43,5.43,8.74,11.51,8.74,11.51,18.5,19.57,42.83,0,42.83,0l-5.83-.4c-23.83,2.5-32-7.5-32-7.5l-15.33-17.17c-7.83,8.5-6,30.67-6,30.67,0.92,18.67,30.33,23,30.33,23,15.5,2,31.17-15.67,31.17-15.67,9-17.67,10.67-9.5,10.67-9.5-2.83,11.33-12.33,26.17-12.33,26.17-13.33,14.83-35.5,20.17-35.5,20.17-3.33,2.33-6.17,12.67-6.5,11.5s0-8.83,0-8.83c-11.67,0-58.83,33-58.83,33,7.17-11.33,50.83-35,50.83-35l-9-.33,9.83-1.83c19.67-5.17,29.5-11.67,29.5-11.67-7.5-4.5-44.17-1.67-44.17-1.67a35.12,35.12,0,0,0-20.5,9.83L118,349.09c-35.17,14.67-48.42,39.33-48.42,39.33L100,389.59c31.33,2.67,49-24,49-24,10.33-14.33,23.83-16.5,23.83-16.5-51.12,62.32-90.64,52.49-99.13,49.37C114.62,415,143.48,386.59,143.48,386.59Z" transform="translate(-56.29 -188.02)"/><path class="cls-54" d="M251.32,293.26c-0.18,9.56,3.79,10.66,7.54,9.58A12.12,12.12,0,0,0,266.4,296c5.56-12.28,25.92-20.76,25.92-20.76-52.33-3.67-56,27.92-56,27.92C240,305.76,251.32,293.26,251.32,293.26Z" transform="translate(-56.29 -188.02)"/><path class="cls-55" d="M489.15,371.84s-19.75,3.5-27.25-1.5c0,0,13,0,14.25-3.25,0,0-35-11-57.25,15.75,0,0,28.5-18.5,64.25,10.25,0,0,27.78,17.16,34.5,14.89,0,0-9.75,6.86-29.5-5.39,0,0-44-30.25-79.75-4.75,0,0,.5-52-4-59.75l10,12s14.25-20.75,60.5-12c0,0-11.25-20.75-58-27,0,0,6-7,3.25-14.5,0,0-6,1.25-7,2.5s2.25-4.25,0-12.5l-20.75-9.25s19-.5,25,9.25a30.2,30.2,0,0,0,19.25-26.75s-13-7-22.75-6.25c0,0-21,28-43.5,6.25a41,41,0,0,0,31-3s-48-4.75-43.5-19c0,0,8.25-2,11.5,6.25,0,0,13.5,10.5,31,9.25,0,0-9.5-20-37.75-20.75,0,0-12.75-3.5-19.25-13,0,0,11.5-.25,20,8.25l13.75,0.25-0.25-12.25H339.65s0-13.5-17-11.25l-11.5,2s-0.5,12.75,23,19.75c0,0,10,5.25,6.75,9,0,0-10,2.5-12.25,12,0,0,3.5-20.25-17.5-20.5,0,0-16.75,2.25-8.25,23,0,0,8,14.75,24,6.25,0,0,6.75,15.25-2.5,26.25,0,0-4.75-24-22.25-17.25,0,0-15.25,3.25-39.5-15.5,0,0-26.5-21.25-50.75-7.75,0,0-52.5,6.75-51.5,14.25,0,0,11.25-1.5,24.75,9.25,0,0,9,7.5,32.5,5.25,0,0,7,6.25-23,9.25,0,0,18.5,9.75,46.75-.25,0,0,18.5-15,31.25-11,0,0-28.75-21.5-70.25-15.75,0,0,23-16.16,78.71,13.4A42.75,42.75,0,0,0,295.51,271c4.95,0.65,11.31,3,12.64,10.38,0,0-47.75,1.5-32.5,30.25,0,0,13,14.5,17-11.25,0,0,0-13.5,11.25-13.5,0,0-1,22.5-9.25,29.25,0,0,11.46,8.16,18,1a10.6,10.6,0,0,0,2.33-9.74c-1.54-6.2-4.28-18.81-1.85-21.05,0,0,1.5,12,8.25,18.75,0,0,4.25,8.25.25,11.75,0,0,20-4.25,17.75-13.5,0,0,0-10.75-12.75-15.75,0,0,6.23-6.05,8.18-14a7.43,7.43,0,0,0-1.48-6.39c-1.55-2-2.57-5.34,3.06-9.4l12.5-17.75,9.25,14s-3.25,25,27,24.25c0,0,0,6.25,11,8,0,0-41.25-2.75-55.5-15.25,0,0-.75,7-9,16,0,0,20.25,9.5,9.25,26.5,0,0,30.25,14.5,18.25-11,0,0-10-14-18.75-16.25l13.75-3.5s15.25,10,14.75,28.25c0,0,10.75,7.25,16.25,45.5,0,0,6.5-30.5-15-65.75,0,0,6.5,5,10.75-3.75,0,0,31.75,6.25,19,22.75,0,0,1.28-11.49-12.66-14.45a4.87,4.87,0,0,0-5.65,3.25c-1.32,4.17-1.43,11,8.35,16.11a31.72,31.72,0,0,0,14.49,3.53c8.4,0.08,25.54,1.06,32.22,7.56,0,0-16.51.75-18.5,11.5,0,0-11.75.75-27-14.75,0,0,12,66.5-2.25,68.5,0,0-4.75,3.25-8-37,0,0-6.25-33.75-15.75-35.75,0,0-7.5,16.5-32.5,1.5,0,0-23.5,12.25-44.5,4.25,0,0-20,3.75-26.25-5.75,0,0-7.82,6.59-34.75,7.5,0,0-14,7.5-8.25,29.75,0,0,22-7.75,71,4.75l2,33.59a62.88,62.88,0,0,1-.72,13.95c-1.7,10.34-1.86,30.51,26.47,18.72,0,0,5.22,5.13-5.92,8a20.52,20.52,0,0,0-8.66,4.63l-6.42,5.84,1.75,3s34.38-7.11,47.41,13.25c0,0,2.09-22.75-16.41-33.25,0,0,2.5-4.25-5.25-14.75,0,0,49,18.5,57-32.5,0,0,9.43,15.14.56,45a34.29,34.29,0,0,0,1.74,24.42,27.11,27.11,0,0,0,11.2,12.33s4.5-7.75,4-12.25c0,0,5.2,10.92,9.4,15.87-3.08-2.32-8.67-4.89-13.6,1.52a19.29,19.29,0,0,0-3.81,11.06,141.17,141.17,0,0,0,2.77,33,11.86,11.86,0,0,1,9.91-6.27,4.68,4.68,0,0,0,3.64-2.25,5.93,5.93,0,0,0,.95-3.91s9,9,14,8.75c0,0,6.5-1.42,16,3.67,0,0,7.75-11.92,1.25-29.17h1.93a8.2,8.2,0,0,0,5.31-2c1.77-1.51,5.07-3.26,10.76-3,0,0-16.7-33.63-39.18-21.43a10.05,10.05,0,0,0-5.44,8.27,4.18,4.18,0,0,0,.37,2.16s-14.25-20-15.25-27c0,0-1-21.25-5.25-25,0,0,5.25,1.5,8.25,18,0,0,2.67,15.76,49.79,24.12a3.86,3.86,0,0,0,4.06-1.89c2.11-3.8,4.19-13.14-4.85-33.48,0,0,22.25,46.25,58.5,19.5,0,0-22.25-2.25-23.5-26.25,0,0,12.5,18.75,28.5,16.25,0,0,10-4.5,14.5-18.75C527.65,412.09,513.65,380.34,489.15,371.84ZM325,385.88c16,6.42,27.25,0,27.25,0C342.52,399.92,325,385.88,325,385.88Zm45-14s-2.87,6.38-12.12,7.25c0,0-20.87-16.25-31.25-1.75,0,0,5,11.63,26.25,4.63,0,0-12.37,10.75-30.75-3.37,0,0-21.37-4-5.5-17.37,0,0,21.25-13.87,59.75-1.12C376.4,360.09,326.9,361.84,370,371.84Zm59.21,128.67c-8.67-5.83-14.75-25.08-14.75-25.08C421,473.51,429.23,500.51,429.23,500.51Z" transform="translate(-56.29 -188.02)"/><path class="cls-56" d="M252.32,211.76s8.5-2.83,12,8c0,0,14.67,9.83,26.17-1.17,0,0,13.33-.67,4,13.67,0,0-5.5,6.5-26.17.33,0,0-18.17-2.83-23.5,3.83,0,0,16,3.83,35.17,18.5,0,0,8.33,8.5,16.67,6.17,0,0-7.5-.83-8.83-5.5,0,0-1.11-3,5.83-8.67,0,0,17-25.67,3-31.17,0,0,8.49-1.06,12.64-13.67,0,0-15.47-5.5-23.31,5.33,0,0-20.5-13.17-37.83,1C248.15,208.42,246,213.92,252.32,211.76Z" transform="translate(-56.29 -188.02)"/><path class="cls-57" d="M227.39,231.19c3-4.75,8.71-12.33,14.67-13.18,8.75-1.25,8.58,10.75,3.5,11.5l-2.82-.05a2.38,2.38,0,0,1-2.38-2.35c0-1,.65-1.85,2.86-1.93,4.83-.17,0-9.5-6.83-1.92s10.42,12.67,14.67,7.33c3.12-3.92,5-15.86-6.71-16.08a18.15,18.15,0,0,0-9.43,2.56,35.83,35.83,0,0,0-10.78,9.18l-1.68.06a20,20,0,0,0-10.66,3.52c-4,2.78-8.9,6.87-9.24,10.5l17.95-4.24A11.22,11.22,0,0,0,227.39,231.19Z" transform="translate(-56.29 -188.02)"/><g class="cls-58"><rect class="cls-59" x="127.02" y="451.31" width="206.25" height="70"/></g></svg>